<svg width="522" height="332" viewBox="0 0 522 332" fill="none" xmlns="http://www.w3.org/2000/svg">
<path fill-rule="evenodd" clip-rule="evenodd" d="M56.2458 169.78C44.0487 191.07 12.7459 312.04 60.7114 322C108.677 331.96 425.711 333.836 490.211 322C554.711 310.164 497.664 178.308 489.771 169.78C486.544 166.293 485.716 145.251 484.786 121.597C483.441 87.4099 481.881 47.7646 472.552 47.7646C472.552 47.7646 473.137 38.3388 473.375 34.5H480.711C481.264 34.5 481.711 34.9477 481.711 35.5V47.6781C481.711 47.7357 481.716 47.7903 481.728 47.8465C481.885 48.5468 483.241 53.5 490.211 53.5C496.881 53.5 498.41 50.3362 498.667 49.6361C498.7 49.5454 498.733 49.4584 498.761 49.366C498.963 48.7047 499.711 45.0688 499.711 27.5C499.711 14.0805 499.275 9.5278 498.978 7.98328C498.897 7.55667 498.701 6.98622 498.547 6.53865C498.527 6.48061 498.508 6.42462 498.49 6.37129C497.917 4.68882 496.001 1 490.211 1C483.206 1 481.872 6.40032 481.726 7.11297C481.715 7.1653 481.711 7.2171 481.711 7.27051V18.3804C481.711 18.9327 481.264 19.3804 480.711 19.3804H474.211C474.211 17.2857 474.211 12.1631 464.598 7.78357C463.951 7.48881 463.224 7.96948 463.224 8.68046V34.5V47.7646L336.229 47.7646H325.474H314.72H303.966H293.211H281.841H270.47H259.591H248.711H237.711H226.711H215.711H204.711C204.711 47.7646 115.835 47.7647 85.1068 47.7646V34.5V8.68999C85.1068 7.97648 84.3762 7.49667 83.7428 7.82526C75.6203 12.0394 76.7115 19.8805 76.7115 19.8805H70.322C69.7697 19.8805 69.322 19.4328 69.322 18.8805V7.19026C69.322 7.19026 68.7114 1 60.7114 1C54.3363 1 52.7239 4.93104 52.332 6.5279C52.2892 6.70203 52.234 6.89486 52.1782 7.09017C52.1066 7.3401 52.034 7.59409 51.9847 7.81817C51.6897 9.15977 51.2114 13.3609 51.2114 26.5C51.2114 44.0754 52.0671 48.8159 52.1954 49.4279C52.206 49.4783 52.2134 49.5235 52.2208 49.5745C52.3157 50.2305 53.2617 55 60.7114 55C60.7114 55 51.2114 78.5 42.7114 84C35.1362 88.9016 29.5466 86.4962 25.2349 84.6407C24.7084 84.4142 24.2011 84.1958 23.7115 84C7.71142 77.6 5.21151 80 3.71146 81.5C-0.0173023 85.2286 0.211463 95 3.71148 97.5C7.2115 100 41.7114 104.5 51.2114 97.5C59.62 91.3042 66.8788 66.698 68.4358 61.1258C65.0544 73.9829 64.1902 94.3529 63.3459 114.253C62.3437 137.876 61.3695 160.837 56.2458 169.78Z" fill="#333333"/>
<path d="M472.552 47.7646L463.224 142.884M472.552 47.7646C470.727 47.7646 467.502 47.7646 463.224 47.7646M472.552 47.7646C472.552 47.7646 473.137 38.3388 473.375 34.5M472.552 47.7646C481.881 47.7646 483.441 87.4099 484.786 121.597C485.716 145.251 486.544 166.293 489.771 169.78C497.664 178.308 554.711 310.164 490.211 322C425.711 333.836 108.677 331.96 60.7114 322C12.7459 312.04 44.0487 191.07 56.2458 169.78C61.3695 160.837 62.3437 137.876 63.3459 114.253C64.1902 94.3529 65.0544 73.9829 68.4358 61.1258M336.229 47.7646H325.474M336.229 47.7646C336.229 47.7646 430.506 47.7645 463.224 47.7646M336.229 47.7646L463.224 47.7646M336.229 47.7646C336.229 47.7646 354 63 359.5 72C361.436 75.1682 357.912 80.381 350.091 85.8064M204.711 47.7646H215.711M204.711 47.7646C204.711 47.7646 115.835 47.7647 85.1068 47.7646M204.711 47.7646C204.711 47.7646 190 61 182.5 72C180.004 75.6602 182.713 80.7044 189.5 85.8064M78.6495 47.7646L85.1068 142.884M78.6495 47.7646C74.0098 47.7646 70.8961 52.4445 68.7439 60M78.6495 47.7646C80.3272 47.7646 82.5092 47.7646 85.1068 47.7646M78.6495 47.7646L77.7276 34.5M85.1068 142.884H463.224M85.1068 142.884L92.2817 169.78M463.224 142.884L450.309 169.78M92.2817 169.78H450.309M92.2817 169.78C92.2817 169.78 46.3623 283.96 69.322 295.768C77.4271 299.936 134.727 308.707 199.188 310.164M450.309 169.78C450.309 169.78 515.601 281.992 489.771 295.768C480.145 300.902 422.478 309.098 352.731 310.164M76.7115 19.8805L77.7276 34.5M76.7115 19.8805H70.322M76.7115 19.8805C76.7115 19.8805 75.6203 12.0394 83.7428 7.82526M199.188 310.164C199.188 317.38 352.731 318.036 352.731 310.164M199.188 310.164C199.188 310.164 199.188 307.54 199.188 300.324C199.188 293.108 352.731 294.42 352.731 300.324C352.731 306.228 352.731 305.571 352.731 310.164M474.211 19.3804C474.211 20.4812 473.792 27.6454 473.375 34.5M474.211 19.3804C474.211 17.2857 474.211 12.1631 464.598 7.78357M474.211 19.3804H480.711M473.375 34.5C473.233 36.83 473.5 32.4918 473.375 34.5ZM473.375 34.5H480.711M473.375 34.5H463.224M77.7276 34.5H70.322C69.7697 34.5 69.322 34.9477 69.322 35.5V49.5C69.322 49.5 68.7114 55 60.7114 55M77.7276 34.5H85.1068M60.7114 55C60.7114 55 51.2114 78.5 42.7114 84C35.1362 88.9016 29.5466 86.4962 25.2349 84.6407C24.7084 84.4142 24.2011 84.1958 23.7115 84C7.71142 77.6 5.21151 80 3.71146 81.5C-0.0173023 85.2286 0.211463 95 3.71148 97.5C7.2115 100 41.7114 104.5 51.2114 97.5C59.62 91.3042 66.8788 66.698 68.4358 61.1258M60.7114 55C53.2617 55 52.3157 50.2305 52.2208 49.5745M68.7439 60C68.7439 60 68.6379 60.4026 68.4358 61.1258M68.7439 60C68.6389 60.3685 68.5362 60.7439 68.4358 61.1258M270.47 47.7646H259.591M270.47 47.7646H281.841M270.47 47.7646V106.5M248.711 47.7646H237.711M248.711 47.7646H259.591M248.711 47.7646L234.5 103.144M226.711 47.7646H215.711M226.711 47.7646H237.711M226.711 47.7646L204.711 94.2716M293.211 47.7646H281.841M293.211 47.7646H303.966M293.211 47.7646L303.966 103.144M314.72 47.7646H303.966M314.72 47.7646H325.474M314.72 47.7646L336.229 94.2716M215.711 47.7646L189.5 85.8064M237.711 47.7646L220 99.681M259.591 47.7646L251 105.539M281.841 47.7646L289.18 105.539M303.966 47.7646L319.226 99.681M325.474 47.7646L350.091 85.8064M85.1068 47.7646V34.5M463.224 47.7646V34.5M52.2208 49.5745C52.2134 49.5235 52.206 49.4783 52.1954 49.4279M52.2208 49.5745C52.2207 49.5741 52.2207 49.5737 52.2206 49.5733C52.2136 49.5246 52.2055 49.476 52.1954 49.4279V49.4279M52.1954 49.4279C52.0671 48.8159 51.2114 44.0754 51.2114 26.5C51.2114 13.3609 51.6897 9.15977 51.9847 7.81817M51.9847 7.81817C52.034 7.59409 52.1066 7.3401 52.1782 7.09017C52.234 6.89486 52.2892 6.70203 52.332 6.5279M51.9847 7.81817V7.81817C52.0721 7.4207 52.2349 6.92313 52.332 6.5279V6.5279M52.332 6.5279C52.7239 4.93104 54.3363 1 60.7114 1C68.7114 1 69.322 7.19026 69.322 7.19026V18.8805M69.322 18.8805C69.322 19.4328 69.7697 19.8805 70.322 19.8805M69.322 18.8805V18.8805C69.322 19.4328 69.7697 19.8805 70.322 19.8805V19.8805M83.7428 7.82526C84.3762 7.49667 85.1068 7.97648 85.1068 8.68999M83.7428 7.82526V7.82526C84.3762 7.49667 85.1068 7.97648 85.1068 8.68999V8.68999M85.1068 8.68999V34.5M85.1068 34.5H463.224M463.224 34.5V8.68046M463.224 8.68046C463.224 7.96948 463.951 7.48881 464.598 7.78357M463.224 8.68046V8.68046C463.224 7.96948 463.951 7.48881 464.598 7.78357V7.78357M480.711 19.3804C481.264 19.3804 481.711 18.9327 481.711 18.3804M480.711 19.3804V19.3804C481.264 19.3804 481.711 18.9327 481.711 18.3804V18.3804M481.711 18.3804V7.27051M481.711 7.27051C481.711 7.2171 481.715 7.1653 481.726 7.11297M481.711 7.27051V7.26894C481.711 7.21657 481.715 7.16427 481.726 7.11297V7.11297M481.726 7.11297C481.872 6.40032 483.206 1 490.211 1C496.001 1 497.917 4.68882 498.49 6.37129M498.49 6.37129C498.508 6.42462 498.527 6.48061 498.547 6.53865C498.701 6.98622 498.897 7.55667 498.978 7.98328M498.49 6.37129V6.37129C498.648 6.83454 498.886 7.50267 498.978 7.98328V7.98328M498.978 7.98328C499.275 9.5278 499.711 14.0805 499.711 27.5C499.711 45.0688 498.963 48.7047 498.761 49.366M498.761 49.366C498.733 49.4584 498.7 49.5454 498.667 49.6361M498.761 49.366V49.366C498.733 49.4568 498.7 49.547 498.667 49.6361V49.6361M498.667 49.6361C498.41 50.3362 496.881 53.5 490.211 53.5C483.241 53.5 481.885 48.5468 481.728 47.8465M481.728 47.8465C481.716 47.7903 481.711 47.7357 481.711 47.6781M481.728 47.8465V47.8465C481.716 47.7922 481.711 47.7366 481.711 47.6809V47.6781M481.711 47.6781V35.5M481.711 35.5C481.711 34.9477 481.264 34.5 480.711 34.5M481.711 35.5V35.5C481.711 34.9477 481.264 34.5 480.711 34.5V34.5M270.47 106.5C263.723 106.5 257.215 106.158 251 105.539M270.47 106.5C276.954 106.5 283.205 106.158 289.18 105.539M251 105.539C245.234 104.963 239.719 104.148 234.5 103.144M189.5 85.8064C193.336 88.6895 198.474 91.591 204.711 94.2716M204.711 94.2716C209.251 96.2225 214.374 98.0564 220 99.681M220 99.681C224.521 100.987 229.368 102.157 234.5 103.144M289.18 105.539C300.222 104.394 310.324 102.304 319.226 99.681M319.226 99.681C332.451 95.7835 343.025 90.7082 350.091 85.8064" stroke="white" stroke-width="2"/>
<path d="M97.8436 193.207C95.7462 187.926 102.577 181.625 108.606 182.711C113.793 183.646 117.428 188.614 115.781 193.207C114.297 197.346 109.701 199.255 105.019 198.455C101.491 197.852 99.0683 196.291 97.8436 193.207Z" fill="#333333" stroke="white" stroke-width="2"/>
<path d="M127.978 193.207C125.881 187.926 132.711 181.625 138.741 182.711C143.928 183.646 147.563 188.614 145.916 193.207C144.432 197.346 139.836 199.255 135.153 198.455C131.626 197.852 129.203 196.291 127.978 193.207Z" fill="#333333" stroke="white" stroke-width="2"/>
<path d="M158.113 193.207C156.016 187.926 162.846 181.625 168.875 182.711C174.062 183.646 177.697 188.614 176.05 193.207C174.566 197.346 169.97 199.255 165.288 198.455C161.761 197.852 159.338 196.291 158.113 193.207Z" fill="#333333" stroke="white" stroke-width="2"/>
<path d="M188.248 193.207C186.15 187.926 192.981 181.625 199.01 182.711C204.197 183.646 207.832 188.614 206.185 193.207C204.701 197.346 200.105 199.255 195.423 198.455C191.895 197.852 189.472 196.291 188.248 193.207Z" fill="#333333" stroke="white" stroke-width="2"/>
<path d="M218.382 193.207C216.285 187.926 223.115 181.625 229.145 182.711C234.332 183.646 237.967 188.614 236.319 193.207C234.835 197.346 230.239 199.255 225.557 198.455C222.03 197.852 219.607 196.291 218.382 193.207Z" fill="#333333" stroke="white" stroke-width="2"/>
<path d="M248.517 193.207C246.42 187.926 253.25 181.625 259.279 182.711C264.466 183.646 268.101 188.614 266.454 193.207C264.97 197.346 260.374 199.255 255.692 198.455C252.165 197.852 249.742 196.291 248.517 193.207Z" fill="#333333" stroke="white" stroke-width="2"/>
<path d="M278.651 193.207C276.554 187.926 283.385 181.625 289.414 182.711C294.601 183.646 298.236 188.614 296.589 193.207C295.105 197.346 290.509 199.255 285.826 198.455C282.299 197.852 279.876 196.291 278.651 193.207Z" fill="#333333" stroke="white" stroke-width="2"/>
<path d="M308.786 193.207C306.689 187.926 313.519 181.625 319.548 182.711C324.735 183.646 328.37 188.614 326.723 193.207C325.239 197.346 320.643 199.255 315.961 198.455C312.434 197.852 310.011 196.291 308.786 193.207Z" fill="#333333" stroke="white" stroke-width="2"/>
<path d="M338.92 193.207C336.823 187.926 343.654 181.625 349.683 182.711C354.87 183.646 358.505 188.614 356.858 193.207C355.374 197.346 350.778 199.255 346.095 198.455C342.568 197.852 340.145 196.291 338.92 193.207Z" fill="#333333" stroke="white" stroke-width="2"/>
<path d="M369.055 193.207C366.958 187.926 373.788 181.625 379.818 182.711C385.005 183.646 388.64 188.614 386.993 193.207C385.508 197.346 380.912 199.255 376.23 198.455C372.703 197.852 370.28 196.291 369.055 193.207Z" fill="#333333" stroke="white" stroke-width="2"/>
<path d="M399.19 193.207C397.092 187.926 403.923 181.625 409.952 182.711C415.139 183.646 418.774 188.614 417.127 193.207C415.643 197.346 411.047 199.255 406.365 198.455C402.838 197.852 400.414 196.291 399.19 193.207Z" fill="#333333" stroke="white" stroke-width="2"/>
<path d="M429.325 193.207C427.227 187.926 434.058 181.625 440.087 182.711C445.274 183.646 448.909 188.614 447.262 193.207C445.778 197.346 441.182 199.255 436.499 198.455C432.972 197.852 430.549 196.291 429.325 193.207Z" fill="#333333" stroke="white" stroke-width="2"/>
<path d="M83.4937 220.759C81.3964 215.478 88.2268 209.177 94.2561 210.263C99.4431 211.198 103.078 216.166 101.431 220.759C99.9469 224.897 95.3509 226.807 90.6687 226.007C87.1415 225.404 84.7184 223.843 83.4937 220.759Z" fill="#333333" stroke="white" stroke-width="2"/>
<path d="M113.629 220.759C111.531 215.478 118.362 209.177 124.391 210.263C129.578 211.198 133.213 216.166 131.566 220.759C130.082 224.897 125.486 226.807 120.803 226.007C117.276 225.404 114.853 223.843 113.629 220.759Z" fill="#333333" stroke="white" stroke-width="2"/>
<path d="M143.763 220.759C141.666 215.478 148.496 209.177 154.525 210.263C159.712 211.198 163.348 216.166 161.7 220.759C160.216 224.897 155.62 226.807 150.938 226.007C147.411 225.404 144.988 223.843 143.763 220.759Z" fill="#333333" stroke="white" stroke-width="2"/>
<path d="M173.898 220.759C171.8 215.478 178.631 209.177 184.66 210.263C189.847 211.198 193.482 216.166 191.835 220.759C190.351 224.897 185.755 226.807 181.073 226.007C177.546 225.404 175.122 223.843 173.898 220.759Z" fill="#333333" stroke="white" stroke-width="2"/>
<path d="M204.032 220.759C201.935 215.478 208.765 209.177 214.795 210.263C219.982 211.198 223.617 216.166 221.97 220.759C220.485 224.897 215.889 226.807 211.207 226.007C207.68 225.404 205.257 223.843 204.032 220.759Z" fill="#333333" stroke="white" stroke-width="2"/>
<path d="M234.167 220.759C232.07 215.478 238.9 209.177 244.929 210.263C250.116 211.198 253.752 216.166 252.104 220.759C250.62 224.897 246.024 226.807 241.342 226.007C237.815 225.404 235.392 223.843 234.167 220.759Z" fill="#333333" stroke="white" stroke-width="2"/>
<path d="M264.302 220.759C262.204 215.478 269.035 209.177 275.064 210.263C280.251 211.198 283.886 216.166 282.239 220.759C280.755 224.897 276.159 226.807 271.477 226.007C267.949 225.404 265.526 223.843 264.302 220.759Z" fill="#333333" stroke="white" stroke-width="2"/>
<path d="M294.436 220.759C292.339 215.478 299.169 209.177 305.198 210.263C310.386 211.198 314.021 216.166 312.373 220.759C310.889 224.897 306.293 226.807 301.611 226.007C298.084 225.404 295.661 223.843 294.436 220.759Z" fill="#333333" stroke="white" stroke-width="2"/>
<path d="M324.571 220.759C322.473 215.478 329.304 209.177 335.333 210.263C340.52 211.198 344.155 216.166 342.508 220.759C341.024 224.897 336.428 226.807 331.746 226.007C328.218 225.404 325.795 223.843 324.571 220.759Z" fill="#333333" stroke="white" stroke-width="2"/>
<path d="M354.705 220.759C352.608 215.478 359.438 209.177 365.468 210.263C370.655 211.198 374.29 216.166 372.643 220.759C371.159 224.897 366.563 226.807 361.88 226.007C358.353 225.404 355.93 223.843 354.705 220.759Z" fill="#333333" stroke="white" stroke-width="2"/>
<path d="M384.84 220.759C382.743 215.478 389.573 209.177 395.602 210.263C400.789 211.198 404.424 216.166 402.777 220.759C401.293 224.897 396.697 226.807 392.015 226.007C388.488 225.404 386.065 223.843 384.84 220.759Z" fill="#333333" stroke="white" stroke-width="2"/>
<path d="M414.974 220.759C412.877 215.478 419.708 209.177 425.737 210.263C430.924 211.198 434.559 216.166 432.912 220.759C431.428 224.897 426.832 226.807 422.149 226.007C418.622 225.404 416.199 223.843 414.974 220.759Z" fill="#333333" stroke="white" stroke-width="2"/>
<path d="M445.109 220.759C443.012 215.478 449.842 209.177 455.872 210.263C461.059 211.198 464.694 216.166 463.047 220.759C461.562 224.897 456.966 226.807 452.284 226.007C448.757 225.404 446.334 223.843 445.109 220.759Z" fill="#333333" stroke="white" stroke-width="2"/>
<path d="M83.4937 248.311C81.3964 243.03 88.2268 236.729 94.2561 237.815C99.4431 238.75 103.078 243.718 101.431 248.311C99.9469 252.449 95.3509 254.359 90.6687 253.559C87.1415 252.956 84.7184 251.395 83.4937 248.311Z" fill="#333333" stroke="white" stroke-width="2"/>
<path d="M113.629 248.311C111.531 243.03 118.362 236.729 124.391 237.815C129.578 238.75 133.213 243.718 131.566 248.311C130.082 252.449 125.486 254.359 120.803 253.559C117.276 252.956 114.853 251.395 113.629 248.311Z" fill="#333333" stroke="white" stroke-width="2"/>
<path d="M143.763 248.311C141.666 243.03 148.496 236.729 154.525 237.815C159.712 238.75 163.348 243.718 161.7 248.311C160.216 252.449 155.62 254.359 150.938 253.559C147.411 252.956 144.988 251.395 143.763 248.311Z" fill="#333333" stroke="white" stroke-width="2"/>
<path d="M173.898 248.311C171.8 243.03 178.631 236.729 184.66 237.815C189.847 238.75 193.482 243.718 191.835 248.311C190.351 252.449 185.755 254.359 181.073 253.559C177.546 252.956 175.122 251.395 173.898 248.311Z" fill="#333333" stroke="white" stroke-width="2"/>
<path d="M204.032 248.311C201.935 243.03 208.765 236.729 214.795 237.815C219.982 238.75 223.617 243.718 221.97 248.311C220.485 252.449 215.889 254.359 211.207 253.559C207.68 252.956 205.257 251.395 204.032 248.311Z" fill="#333333" stroke="white" stroke-width="2"/>
<path d="M234.167 248.311C232.07 243.03 238.9 236.729 244.929 237.815C250.116 238.75 253.752 243.718 252.104 248.311C250.62 252.449 246.024 254.359 241.342 253.559C237.815 252.956 235.392 251.395 234.167 248.311Z" fill="#333333" stroke="white" stroke-width="2"/>
<path d="M264.302 248.311C262.204 243.03 269.035 236.729 275.064 237.815C280.251 238.75 283.886 243.718 282.239 248.311C280.755 252.449 276.159 254.359 271.477 253.559C267.949 252.956 265.526 251.395 264.302 248.311Z" fill="#333333" stroke="white" stroke-width="2"/>
<path d="M294.436 248.311C292.339 243.03 299.169 236.729 305.198 237.815C310.386 238.75 314.021 243.718 312.373 248.311C310.889 252.449 306.293 254.359 301.611 253.559C298.084 252.956 295.661 251.395 294.436 248.311Z" fill="#333333" stroke="white" stroke-width="2"/>
<path d="M324.571 248.311C322.473 243.03 329.304 236.729 335.333 237.815C340.52 238.75 344.155 243.718 342.508 248.311C341.024 252.449 336.428 254.359 331.746 253.559C328.218 252.956 325.795 251.395 324.571 248.311Z" fill="#333333" stroke="white" stroke-width="2"/>
<path d="M354.705 248.311C352.608 243.03 359.438 236.729 365.468 237.815C370.655 238.75 374.29 243.718 372.643 248.311C371.159 252.449 366.563 254.359 361.88 253.559C358.353 252.956 355.93 251.395 354.705 248.311Z" fill="#333333" stroke="white" stroke-width="2"/>
<path d="M384.84 248.311C382.743 243.03 389.573 236.729 395.602 237.815C400.789 238.75 404.424 243.718 402.777 248.311C401.293 252.449 396.697 254.359 392.015 253.559C388.488 252.956 386.065 251.395 384.84 248.311Z" fill="#333333" stroke="white" stroke-width="2"/>
<path d="M414.974 248.311C412.877 243.03 419.708 236.729 425.737 237.815C430.924 238.75 434.559 243.718 432.912 248.311C431.428 252.449 426.832 254.359 422.149 253.559C418.622 252.956 416.199 251.395 414.974 248.311Z" fill="#333333" stroke="white" stroke-width="2"/>
<path d="M445.109 248.311C443.012 243.03 449.842 236.729 455.872 237.815C461.059 238.75 464.694 243.718 463.047 248.311C461.562 252.449 456.966 254.359 452.284 253.559C448.757 252.956 446.334 251.395 445.109 248.311Z" fill="#333333" stroke="white" stroke-width="2"/>
<path d="M83.4937 275.863C81.3964 270.582 88.2268 264.281 94.2561 265.367C99.4431 266.302 103.078 271.27 101.431 275.863C99.9469 280.001 95.3509 281.911 90.6687 281.111C87.1415 280.508 84.7184 278.947 83.4937 275.863Z" fill="#333333" stroke="white" stroke-width="2"/>
<path d="M113.629 275.863C111.531 270.582 118.362 264.281 124.391 265.367C129.578 266.302 133.213 271.27 131.566 275.863C130.082 280.001 125.486 281.911 120.803 281.111C117.276 280.508 114.853 278.947 113.629 275.863Z" fill="#333333" stroke="white" stroke-width="2"/>
<path d="M143.763 275.863C141.666 270.582 148.496 264.281 154.525 265.367C159.712 266.302 163.348 271.27 161.7 275.863C160.216 280.001 155.62 281.911 150.938 281.111C147.411 280.508 144.988 278.947 143.763 275.863Z" fill="#333333" stroke="white" stroke-width="2"/>
<path d="M173.898 275.863C171.8 270.582 178.631 264.281 184.66 265.367C189.847 266.302 193.482 271.27 191.835 275.863C190.351 280.001 185.755 281.911 181.073 281.111C177.546 280.508 175.122 278.947 173.898 275.863Z" fill="#333333" stroke="white" stroke-width="2"/>
<path d="M204.032 275.863C201.935 270.582 208.765 264.281 214.795 265.367C219.982 266.302 223.617 271.27 221.97 275.863C220.485 280.001 215.889 281.911 211.207 281.111C207.68 280.508 205.257 278.947 204.032 275.863Z" fill="#333333" stroke="white" stroke-width="2"/>
<path d="M234.167 275.863C232.07 270.582 238.9 264.281 244.929 265.367C250.116 266.302 253.752 271.27 252.104 275.863C250.62 280.001 246.024 281.911 241.342 281.111C237.815 280.508 235.392 278.947 234.167 275.863Z" fill="#333333" stroke="white" stroke-width="2"/>
<path d="M264.302 275.863C262.204 270.582 269.035 264.281 275.064 265.367C280.251 266.302 283.886 271.27 282.239 275.863C280.755 280.001 276.159 281.911 271.477 281.111C267.949 280.508 265.526 278.947 264.302 275.863Z" fill="#333333" stroke="white" stroke-width="2"/>
<path d="M294.436 275.863C292.339 270.582 299.169 264.281 305.198 265.367C310.386 266.302 314.021 271.27 312.373 275.863C310.889 280.001 306.293 281.911 301.611 281.111C298.084 280.508 295.661 278.947 294.436 275.863Z" fill="#333333" stroke="white" stroke-width="2"/>
<path d="M324.571 275.863C322.473 270.582 329.304 264.281 335.333 265.367C340.52 266.302 344.155 271.27 342.508 275.863C341.024 280.001 336.428 281.911 331.746 281.111C328.218 280.508 325.795 278.947 324.571 275.863Z" fill="#333333" stroke="white" stroke-width="2"/>
<path d="M354.705 275.863C352.608 270.582 359.438 264.281 365.468 265.367C370.655 266.302 374.29 271.27 372.643 275.863C371.159 280.001 366.563 281.911 361.88 281.111C358.353 280.508 355.93 278.947 354.705 275.863Z" fill="#333333" stroke="white" stroke-width="2"/>
<path d="M384.84 275.863C382.743 270.582 389.573 264.281 395.602 265.367C400.789 266.302 404.424 271.27 402.777 275.863C401.293 280.001 396.697 281.911 392.015 281.111C388.488 280.508 386.065 278.947 384.84 275.863Z" fill="#333333" stroke="white" stroke-width="2"/>
<path d="M414.974 275.863C412.877 270.582 419.708 264.281 425.737 265.367C430.924 266.302 434.559 271.27 432.912 275.863C431.428 280.001 426.832 281.911 422.149 281.111C418.622 280.508 416.199 278.947 414.974 275.863Z" fill="#333333" stroke="white" stroke-width="2"/>
<path d="M445.109 275.863C443.012 270.582 449.842 264.281 455.872 265.367C461.059 266.302 464.694 271.27 463.047 275.863C461.562 280.001 456.966 281.911 452.284 281.111C448.757 280.508 446.334 278.947 445.109 275.863Z" fill="#333333" stroke="white" stroke-width="2"/>
</svg>
