<svg width="486" height="328" viewBox="0 0 486 328" fill="none" xmlns="http://www.w3.org/2000/svg">
<path d="M14.5344 317.66C-14.1652 307.164 9.83729 188.07 22.0344 166.78C34.2315 145.49 22.9132 44.7644 44.4379 44.7646L42.5024 16.9149C42.5008 16.892 42.4987 16.8717 42.496 16.8489C42.4284 16.2755 41.6281 8.04974 50.8953 4.19026C60.5 0.190221 418.026 -0.309724 429.013 4.19026C440 8.69025 440 14.1903 440 16.3804C440 18.5706 438.34 44.7646 438.34 44.7646C454.125 44.7647 447.668 158.252 455.56 166.78C463.453 175.308 504.35 305.196 471.345 317.66C438.34 330.124 43.234 328.156 14.5344 317.66Z" fill="#333333"/>
<path d="M438.34 44.7646C454.125 44.7647 447.668 158.252 455.56 166.78C463.453 175.308 504.35 305.196 471.345 317.66C438.34 330.124 43.234 328.156 14.5344 317.66C-14.1652 307.164 9.83729 188.07 22.0344 166.78C34.2315 145.49 22.9132 44.7644 44.4379 44.7646M438.34 44.7646C424.207 44.7645 326.097 44.7646 305.719 44.7646C304.693 44.7646 304.369 46.1588 305.241 46.6974C313.612 51.8641 334.952 66.0707 328.564 72.9725C320.672 81.5005 144.887 86.0925 144.887 72.9725C144.887 62.5727 155.256 50.9363 159.555 46.5583C160.195 45.9071 159.749 44.7646 158.836 44.7646C143.523 44.7646 63.8689 44.7648 44.4379 44.7646M438.34 44.7646L429.013 139.884M438.34 44.7646C438.34 44.7646 440 18.5706 440 16.3804C440 14.1903 440 8.69025 429.013 4.19026C418.026 -0.309724 60.5 0.190221 50.8953 4.19026C41.6281 8.04974 42.4284 16.2755 42.496 16.8489C42.4987 16.8717 42.5008 16.892 42.5024 16.9149L44.4379 44.7646M44.4379 44.7646L50.8953 139.884M50.8953 139.884H429.013M50.8953 139.884L58.0702 166.78M429.013 139.884L416.098 166.78M58.0702 166.78H416.098M58.0702 166.78C58.0702 166.78 12.1508 280.96 35.1105 292.768C43.2156 296.936 100.516 305.707 164.977 307.164M416.098 166.78C416.098 166.78 481.39 278.992 455.56 292.768C445.933 297.902 388.267 306.098 318.519 307.164M164.977 307.164C164.977 314.38 318.519 315.036 318.519 307.164M164.977 307.164C164.977 307.164 164.977 304.54 164.977 297.324C164.977 290.108 318.519 291.42 318.519 297.324C318.519 303.228 318.519 302.571 318.519 307.164" stroke="white" stroke-width="2"/>
<path d="M65.6322 189.207C63.5348 183.926 70.3653 177.625 76.3945 178.711C81.5816 179.646 85.2166 184.614 83.5695 189.207C82.0853 193.346 77.4894 195.255 72.8071 194.455C69.2799 193.852 66.8568 192.291 65.6322 189.207Z" fill="#333333" stroke="white" stroke-width="2"/>
<path d="M95.7669 189.207C93.6696 183.926 100.5 177.625 106.529 178.711C111.716 179.646 115.351 184.614 113.704 189.207C112.22 193.346 107.624 195.255 102.942 194.455C99.4147 193.852 96.9916 192.291 95.7669 189.207Z" fill="#333333" stroke="white" stroke-width="2"/>
<path d="M125.901 189.207C123.804 183.926 130.635 177.625 136.664 178.711C141.851 179.646 145.486 184.614 143.839 189.207C142.355 193.346 137.759 195.255 133.076 194.455C129.549 193.852 127.126 192.291 125.901 189.207Z" fill="#333333" stroke="white" stroke-width="2"/>
<path d="M156.036 189.207C153.939 183.926 160.769 177.625 166.799 178.711C171.986 179.646 175.621 184.614 173.974 189.207C172.489 193.346 167.893 195.255 163.211 194.455C159.684 193.852 157.261 192.291 156.036 189.207Z" fill="#333333" stroke="white" stroke-width="2"/>
<path d="M186.171 189.207C184.073 183.926 190.904 177.625 196.933 178.711C202.12 179.646 205.755 184.614 204.108 189.207C202.624 193.346 198.028 195.255 193.346 194.455C189.818 193.852 187.395 192.291 186.171 189.207Z" fill="#333333" stroke="white" stroke-width="2"/>
<path d="M216.306 189.207C214.208 183.926 221.039 177.625 227.068 178.711C232.255 179.646 235.89 184.614 234.243 189.207C232.759 193.346 228.163 195.255 223.48 194.455C219.953 193.852 217.53 192.291 216.306 189.207Z" fill="#333333" stroke="white" stroke-width="2"/>
<path d="M246.44 189.207C244.343 183.926 251.173 177.625 257.202 178.711C262.389 179.646 266.025 184.614 264.377 189.207C262.893 193.346 258.297 195.255 253.615 194.455C250.088 193.852 247.665 192.291 246.44 189.207Z" fill="#333333" stroke="white" stroke-width="2"/>
<path d="M276.575 189.207C274.477 183.926 281.308 177.625 287.337 178.711C292.524 179.646 296.159 184.614 294.512 189.207C293.028 193.346 288.432 195.255 283.749 194.455C280.222 193.852 277.799 192.291 276.575 189.207Z" fill="#333333" stroke="white" stroke-width="2"/>
<path d="M306.709 189.207C304.612 183.926 311.442 177.625 317.471 178.711C322.658 179.646 326.294 184.614 324.646 189.207C323.162 193.346 318.566 195.255 313.884 194.455C310.357 193.852 307.934 192.291 306.709 189.207Z" fill="#333333" stroke="white" stroke-width="2"/>
<path d="M336.844 189.207C334.746 183.926 341.577 177.625 347.606 178.711C352.793 179.646 356.428 184.614 354.781 189.207C353.297 193.346 348.701 195.255 344.019 194.455C340.492 193.852 338.069 192.291 336.844 189.207Z" fill="#333333" stroke="white" stroke-width="2"/>
<path d="M366.978 189.207C364.881 183.926 371.711 177.625 377.741 178.711C382.928 179.646 386.563 184.614 384.916 189.207C383.432 193.346 378.836 195.255 374.153 194.455C370.626 193.852 368.203 192.291 366.978 189.207Z" fill="#333333" stroke="white" stroke-width="2"/>
<path d="M397.113 189.207C395.016 183.926 401.846 177.625 407.875 178.711C413.063 179.646 416.698 184.614 415.05 189.207C413.566 193.346 408.97 195.255 404.288 194.455C400.761 193.852 398.338 192.291 397.113 189.207Z" fill="#333333" stroke="white" stroke-width="2"/>
<path d="M51.2823 216.759C49.185 211.478 56.0154 205.177 62.0447 206.263C67.2317 207.198 70.8668 212.166 69.2196 216.759C67.7355 220.898 63.1395 222.807 58.4572 222.007C54.93 221.404 52.507 219.843 51.2823 216.759Z" fill="#333333" stroke="white" stroke-width="2"/>
<path d="M81.4171 216.759C79.3197 211.478 86.1502 205.177 92.1794 206.263C97.3665 207.198 101.002 212.166 99.3544 216.759C97.8702 220.898 93.2743 222.807 88.592 222.007C85.0648 221.404 82.6418 219.843 81.4171 216.759Z" fill="#333333" stroke="white" stroke-width="2"/>
<path d="M111.552 216.759C109.454 211.478 116.285 205.177 122.314 206.263C127.501 207.198 131.136 212.166 129.489 216.759C128.005 220.898 123.409 222.807 118.727 222.007C115.199 221.404 112.776 219.843 111.552 216.759Z" fill="#333333" stroke="white" stroke-width="2"/>
<path d="M141.686 216.759C139.589 211.478 146.419 205.177 152.449 206.263C157.636 207.198 161.271 212.166 159.624 216.759C158.14 220.898 153.544 222.807 148.861 222.007C145.334 221.404 142.911 219.843 141.686 216.759Z" fill="#333333" stroke="white" stroke-width="2"/>
<path d="M171.821 216.759C169.724 211.478 176.554 205.177 182.583 206.263C187.77 207.198 191.405 212.166 189.758 216.759C188.274 220.898 183.678 222.807 178.996 222.007C175.469 221.404 173.046 219.843 171.821 216.759Z" fill="#333333" stroke="white" stroke-width="2"/>
<path d="M201.956 216.759C199.858 211.478 206.689 205.177 212.718 206.263C217.905 207.198 221.54 212.166 219.893 216.759C218.409 220.898 213.813 222.807 209.131 222.007C205.603 221.404 203.18 219.843 201.956 216.759Z" fill="#333333" stroke="white" stroke-width="2"/>
<path d="M232.09 216.759C229.993 211.478 236.823 205.177 242.853 206.263C248.04 207.198 251.675 212.166 250.027 216.759C248.543 220.898 243.947 222.807 239.265 222.007C235.738 221.404 233.315 219.843 232.09 216.759Z" fill="#333333" stroke="white" stroke-width="2"/>
<path d="M262.225 216.759C260.127 211.478 266.958 205.177 272.987 206.263C278.174 207.198 281.809 212.166 280.162 216.759C278.678 220.898 274.082 222.807 269.4 222.007C265.872 221.404 263.449 219.843 262.225 216.759Z" fill="#333333" stroke="white" stroke-width="2"/>
<path d="M292.359 216.759C290.262 211.478 297.092 205.177 303.122 206.263C308.309 207.198 311.944 212.166 310.297 216.759C308.812 220.898 304.216 222.807 299.534 222.007C296.007 221.404 293.584 219.843 292.359 216.759Z" fill="#333333" stroke="white" stroke-width="2"/>
<path d="M322.494 216.759C320.397 211.478 327.227 205.177 333.256 206.263C338.443 207.198 342.078 212.166 340.431 216.759C338.947 220.898 334.351 222.807 329.669 222.007C326.142 221.404 323.719 219.843 322.494 216.759Z" fill="#333333" stroke="white" stroke-width="2"/>
<path d="M352.629 216.759C350.531 211.478 357.362 205.177 363.391 206.263C368.578 207.198 372.213 212.166 370.566 216.759C369.082 220.898 364.486 222.807 359.803 222.007C356.276 221.404 353.853 219.843 352.629 216.759Z" fill="#333333" stroke="white" stroke-width="2"/>
<path d="M382.763 216.759C380.666 211.478 387.496 205.177 393.525 206.263C398.712 207.198 402.348 212.166 400.7 216.759C399.216 220.898 394.62 222.807 389.938 222.007C386.411 221.404 383.988 219.843 382.763 216.759Z" fill="#333333" stroke="white" stroke-width="2"/>
<path d="M412.898 216.759C410.8 211.478 417.631 205.177 423.66 206.263C428.847 207.198 432.482 212.166 430.835 216.759C429.351 220.898 424.755 222.807 420.073 222.007C416.546 221.404 414.122 219.843 412.898 216.759Z" fill="#333333" stroke="white" stroke-width="2"/>
<path d="M51.2823 244.311C49.185 239.03 56.0154 232.729 62.0447 233.815C67.2317 234.75 70.8668 239.718 69.2196 244.311C67.7355 248.449 63.1395 250.359 58.4572 249.559C54.93 248.956 52.507 247.395 51.2823 244.311Z" fill="#333333" stroke="white" stroke-width="2"/>
<path d="M81.4171 244.311C79.3197 239.03 86.1502 232.729 92.1794 233.815C97.3665 234.75 101.002 239.718 99.3544 244.311C97.8702 248.449 93.2743 250.359 88.592 249.559C85.0648 248.956 82.6418 247.395 81.4171 244.311Z" fill="#333333" stroke="white" stroke-width="2"/>
<path d="M111.552 244.311C109.454 239.03 116.285 232.729 122.314 233.815C127.501 234.75 131.136 239.718 129.489 244.311C128.005 248.449 123.409 250.359 118.727 249.559C115.199 248.956 112.776 247.395 111.552 244.311Z" fill="#333333" stroke="white" stroke-width="2"/>
<path d="M141.686 244.311C139.589 239.03 146.419 232.729 152.449 233.815C157.636 234.75 161.271 239.718 159.624 244.311C158.14 248.449 153.544 250.359 148.861 249.559C145.334 248.956 142.911 247.395 141.686 244.311Z" fill="#333333" stroke="white" stroke-width="2"/>
<path d="M171.821 244.311C169.724 239.03 176.554 232.729 182.583 233.815C187.77 234.75 191.405 239.718 189.758 244.311C188.274 248.449 183.678 250.359 178.996 249.559C175.469 248.956 173.046 247.395 171.821 244.311Z" fill="#333333" stroke="white" stroke-width="2"/>
<path d="M201.956 244.311C199.858 239.03 206.689 232.729 212.718 233.815C217.905 234.75 221.54 239.718 219.893 244.311C218.409 248.449 213.813 250.359 209.131 249.559C205.603 248.956 203.18 247.395 201.956 244.311Z" fill="#333333" stroke="white" stroke-width="2"/>
<path d="M232.09 244.311C229.993 239.03 236.823 232.729 242.853 233.815C248.04 234.75 251.675 239.718 250.027 244.311C248.543 248.449 243.947 250.359 239.265 249.559C235.738 248.956 233.315 247.395 232.09 244.311Z" fill="#333333" stroke="white" stroke-width="2"/>
<path d="M262.225 244.311C260.127 239.03 266.958 232.729 272.987 233.815C278.174 234.75 281.809 239.718 280.162 244.311C278.678 248.449 274.082 250.359 269.4 249.559C265.872 248.956 263.449 247.395 262.225 244.311Z" fill="#333333" stroke="white" stroke-width="2"/>
<path d="M292.359 244.311C290.262 239.03 297.092 232.729 303.122 233.815C308.309 234.75 311.944 239.718 310.297 244.311C308.812 248.449 304.216 250.359 299.534 249.559C296.007 248.956 293.584 247.395 292.359 244.311Z" fill="#333333" stroke="white" stroke-width="2"/>
<path d="M322.494 244.311C320.397 239.03 327.227 232.729 333.256 233.815C338.443 234.75 342.078 239.718 340.431 244.311C338.947 248.449 334.351 250.359 329.669 249.559C326.142 248.956 323.719 247.395 322.494 244.311Z" fill="#333333" stroke="white" stroke-width="2"/>
<path d="M352.629 244.311C350.531 239.03 357.362 232.729 363.391 233.815C368.578 234.75 372.213 239.718 370.566 244.311C369.082 248.449 364.486 250.359 359.803 249.559C356.276 248.956 353.853 247.395 352.629 244.311Z" fill="#333333" stroke="white" stroke-width="2"/>
<path d="M382.763 244.311C380.666 239.03 387.496 232.729 393.525 233.815C398.712 234.75 402.348 239.718 400.7 244.311C399.216 248.449 394.62 250.359 389.938 249.559C386.411 248.956 383.988 247.395 382.763 244.311Z" fill="#333333" stroke="white" stroke-width="2"/>
<path d="M412.898 244.311C410.8 239.03 417.631 232.729 423.66 233.815C428.847 234.75 432.482 239.718 430.835 244.311C429.351 248.449 424.755 250.359 420.073 249.559C416.546 248.956 414.122 247.395 412.898 244.311Z" fill="#333333" stroke="white" stroke-width="2"/>
<path d="M51.2823 271.863C49.185 266.582 56.0154 260.281 62.0447 261.367C67.2317 262.302 70.8668 267.27 69.2196 271.863C67.7355 276.001 63.1395 277.911 58.4572 277.111C54.93 276.508 52.507 274.947 51.2823 271.863Z" fill="#333333" stroke="white" stroke-width="2"/>
<path d="M81.4171 271.863C79.3197 266.582 86.1502 260.281 92.1794 261.367C97.3665 262.302 101.002 267.27 99.3544 271.863C97.8702 276.001 93.2743 277.911 88.592 277.111C85.0648 276.508 82.6418 274.947 81.4171 271.863Z" fill="#333333" stroke="white" stroke-width="2"/>
<path d="M111.552 271.863C109.454 266.582 116.285 260.281 122.314 261.367C127.501 262.302 131.136 267.27 129.489 271.863C128.005 276.001 123.409 277.911 118.727 277.111C115.199 276.508 112.776 274.947 111.552 271.863Z" fill="#333333" stroke="white" stroke-width="2"/>
<path d="M141.686 271.863C139.589 266.582 146.419 260.281 152.449 261.367C157.636 262.302 161.271 267.27 159.624 271.863C158.14 276.001 153.544 277.911 148.861 277.111C145.334 276.508 142.911 274.947 141.686 271.863Z" fill="#333333" stroke="white" stroke-width="2"/>
<path d="M171.821 271.863C169.724 266.582 176.554 260.281 182.583 261.367C187.77 262.302 191.405 267.27 189.758 271.863C188.274 276.001 183.678 277.911 178.996 277.111C175.469 276.508 173.046 274.947 171.821 271.863Z" fill="#333333" stroke="white" stroke-width="2"/>
<path d="M201.956 271.863C199.858 266.582 206.689 260.281 212.718 261.367C217.905 262.302 221.54 267.27 219.893 271.863C218.409 276.001 213.813 277.911 209.131 277.111C205.603 276.508 203.18 274.947 201.956 271.863Z" fill="#333333" stroke="white" stroke-width="2"/>
<path d="M232.09 271.863C229.993 266.582 236.823 260.281 242.853 261.367C248.04 262.302 251.675 267.27 250.027 271.863C248.543 276.001 243.947 277.911 239.265 277.111C235.738 276.508 233.315 274.947 232.09 271.863Z" fill="#333333" stroke="white" stroke-width="2"/>
<path d="M262.225 271.863C260.127 266.582 266.958 260.281 272.987 261.367C278.174 262.302 281.809 267.27 280.162 271.863C278.678 276.001 274.082 277.911 269.4 277.111C265.872 276.508 263.449 274.947 262.225 271.863Z" fill="#333333" stroke="white" stroke-width="2"/>
<path d="M292.359 271.863C290.262 266.582 297.092 260.281 303.122 261.367C308.309 262.302 311.944 267.27 310.297 271.863C308.812 276.001 304.216 277.911 299.534 277.111C296.007 276.508 293.584 274.947 292.359 271.863Z" fill="#333333" stroke="white" stroke-width="2"/>
<path d="M322.494 271.863C320.397 266.582 327.227 260.281 333.256 261.367C338.443 262.302 342.078 267.27 340.431 271.863C338.947 276.001 334.351 277.911 329.669 277.111C326.142 276.508 323.719 274.947 322.494 271.863Z" fill="#333333" stroke="white" stroke-width="2"/>
<path d="M352.629 271.863C350.531 266.582 357.362 260.281 363.391 261.367C368.578 262.302 372.213 267.27 370.566 271.863C369.082 276.001 364.486 277.911 359.803 277.111C356.276 276.508 353.853 274.947 352.629 271.863Z" fill="#333333" stroke="white" stroke-width="2"/>
<path d="M382.763 271.863C380.666 266.582 387.496 260.281 393.525 261.367C398.712 262.302 402.348 267.27 400.7 271.863C399.216 276.001 394.62 277.911 389.938 277.111C386.411 276.508 383.988 274.947 382.763 271.863Z" fill="#333333" stroke="white" stroke-width="2"/>
<path d="M412.898 271.863C410.8 266.582 417.631 260.281 423.66 261.367C428.847 262.302 432.482 267.27 430.835 271.863C429.351 276.001 424.755 277.911 420.073 277.111C416.546 276.508 414.122 274.947 412.898 271.863Z" fill="#333333" stroke="white" stroke-width="2"/>
</svg>
