<svg width="523" height="332" viewBox="0 0 523 332" fill="none" xmlns="http://www.w3.org/2000/svg">
<path d="M61.5 322C13.5344 312.04 44.8373 191.07 57.0344 169.78C66.4742 153.303 61.8289 89.2458 69.2243 61.1258C67.6674 66.698 60.4086 91.3042 52 97.5C42.5 104.5 8.00007 100 4.50006 97.5C1.00004 95 0.771272 85.2286 4.50004 81.5C6.00008 80 8.49999 77.6 24.5 84C29 85.8 35 89.5 43.5 84C52 78.5 61.5 55 61.5 55C54.0502 55 53.1043 50.2305 53.0094 49.5745C53.002 49.5235 52.9945 49.4783 52.984 49.4279C52.8557 48.8159 52 44.0754 52 26.5C52 13.3609 52.4782 9.15977 52.7733 7.81817C52.861 7.41897 53.0231 6.92485 53.1205 6.5279C53.5125 4.93104 55.1249 1 61.5 1C69.5 1 70.1106 7.19026 70.1106 7.19026V18.8805C70.1106 19.4328 70.5583 19.8805 71.1106 19.8805H77.5001C77.5001 19.8805 76.4089 12.0394 84.5314 7.82526C85.1648 7.49667 85.8954 7.97648 85.8954 8.68999V34.5H464.013V8.68046C464.013 7.96948 464.74 7.48881 465.387 7.78357C475 12.1631 475 17.2857 475 19.3804H481.5C482.052 19.3804 482.5 18.9327 482.5 18.3804V7.27051C482.5 7.2171 482.504 7.1653 482.515 7.11297C482.66 6.40032 483.995 1 491 1C496.79 1 498.706 4.68882 499.279 6.37129C499.437 6.83583 499.675 7.50134 499.767 7.98328C500.063 9.5278 500.5 14.0805 500.5 27.5C500.5 45.0688 499.752 48.7047 499.55 49.366C499.521 49.4584 499.489 49.5454 499.456 49.6361C499.199 50.3362 497.67 53.5 491 53.5C484.03 53.5 482.674 48.5468 482.517 47.8465C482.504 47.7903 482.5 47.7357 482.5 47.6781V35.5C482.5 34.9477 482.052 34.5 481.5 34.5H474.164C473.925 38.3388 473.34 47.7646 473.34 47.7646C489.125 47.7647 482.668 161.252 490.56 169.78C498.452 178.308 555.5 310.164 491 322C426.5 333.836 109.466 331.96 61.5 322Z" fill="#333333"/>
<path d="M473.34 47.7646C489.125 47.7647 482.668 161.252 490.56 169.78C498.452 178.308 555.5 310.164 491 322C426.5 333.836 109.466 331.96 61.5 322C13.5344 312.04 44.8373 191.07 57.0344 169.78C66.6024 153.079 61.7001 87.4967 69.5325 60M473.34 47.7646L464.013 142.884M473.34 47.7646C471.515 47.7646 468.29 47.7646 464.013 47.7646C431.295 47.7645 337.017 47.7646 337.017 47.7646M473.34 47.7646C473.34 47.7646 473.925 38.3388 474.164 34.5M337.017 47.7646C337.017 47.7646 362.362 68 358.5 84C357.79 86.9401 356.067 89.4919 353.419 91.6989M337.017 47.7646H326.263M205.5 47.7646C205.5 47.7646 179 68 184 84C184.919 86.9401 186.775 89.4919 189.5 91.6989M205.5 47.7646H216.5M205.5 47.7646C205.5 47.7646 116.624 47.7648 85.8954 47.7646C83.2978 47.7646 81.1158 47.7646 79.438 47.7646M79.438 47.7646L85.8954 142.884M79.438 47.7646C74.7984 47.7646 71.6846 52.4445 69.5325 60M79.438 47.7646L78.5161 34.5M85.8954 142.884H464.013M85.8954 142.884L93.0703 169.78M464.013 142.884L451.098 169.78M93.0703 169.78H451.098M93.0703 169.78C93.0703 169.78 47.1509 283.96 70.1106 295.768C78.2157 299.936 135.516 308.707 199.977 310.164M451.098 169.78C451.098 169.78 516.39 281.992 490.56 295.768C480.933 300.902 423.267 309.098 353.519 310.164M77.5001 19.8805C77.5001 19.8805 76.4089 12.0394 84.5314 7.82526C85.1648 7.49667 85.8954 7.97648 85.8954 8.68999V34.5M77.5001 19.8805H71.1106C70.5583 19.8805 70.1106 19.4328 70.1106 18.8805V7.19026C70.1106 7.19026 69.5 1 61.5 1C55.1249 1 53.5125 4.93104 53.1205 6.5279C53.0231 6.92485 52.861 7.41897 52.7733 7.81817C52.4782 9.15977 52 13.3609 52 26.5C52 44.0754 52.8557 48.8159 52.984 49.4279C52.9945 49.4783 53.002 49.5235 53.0094 49.5745C53.1043 50.2305 54.0502 55 61.5 55M77.5001 19.8805L78.5161 34.5M199.977 310.164C199.977 317.38 353.519 318.036 353.519 310.164M199.977 310.164C199.977 310.164 199.977 307.54 199.977 300.324C199.977 293.108 353.519 294.42 353.519 300.324C353.519 306.228 353.519 305.571 353.519 310.164M475 19.3804C475 17.2857 475 12.1631 465.387 7.78357C464.74 7.48881 464.013 7.96948 464.013 8.68046V34.5M475 19.3804H481.5C482.052 19.3804 482.5 18.9327 482.5 18.3804V7.27051C482.5 7.2171 482.504 7.1653 482.515 7.11297C482.66 6.40032 483.995 1 491 1C496.79 1 498.706 4.68882 499.279 6.37129C499.437 6.83583 499.675 7.50134 499.767 7.98328C500.063 9.5278 500.5 14.0805 500.5 27.5C500.5 45.0688 499.752 48.7047 499.55 49.366C499.521 49.4584 499.489 49.5454 499.456 49.6361C499.199 50.3362 497.67 53.5 491 53.5C484.03 53.5 482.674 48.5468 482.517 47.8465C482.504 47.7903 482.5 47.7357 482.5 47.6781V35.5C482.5 34.9477 482.052 34.5 481.5 34.5H474.164M475 19.3804C475 20.4812 474.581 27.6454 474.164 34.5M474.164 34.5C474.022 36.83 474.288 32.4918 474.164 34.5ZM474.164 34.5H464.013M78.5161 34.5H71.1106C70.5583 34.5 70.1106 34.9477 70.1106 35.5V49.5C70.1106 49.5 69.5 55 61.5 55M78.5161 34.5H85.8954M61.5 55C61.5 55 52 78.5 43.5 84C35 89.5 29 85.8 24.5 84C8.49999 77.6 6.00009 80 4.50004 81.5C0.771272 85.2286 1.00004 95 4.50006 97.5C8.00007 100 42.5 104.5 52 97.5C61.5 90.5 69.5325 60 69.5325 60M271.259 104.5V47.7646M271.259 104.5C265.435 104.5 259.842 104.438 254.5 104.302M271.259 104.5C277.082 104.5 282.69 104.438 288.058 104.302M271.259 47.7646H260.379M271.259 47.7646H282.629M249.5 47.7646L239 103.647M249.5 47.7646H238.5M249.5 47.7646H260.379M239 103.647C232.694 103.257 226.847 102.721 221.5 102.013M239 103.647C243.896 103.949 249.069 104.163 254.5 104.302M227.5 47.7646L205.5 98.9614M227.5 47.7646H216.5M227.5 47.7646H238.5M205.5 98.9614C198.641 97.1177 193.248 94.7346 189.5 91.6989M205.5 98.9614C210.172 100.217 215.524 101.223 221.5 102.013M294 47.7646L303.661 103.647M294 47.7646H282.629M294 47.7646H304.754M303.661 103.647C298.724 103.949 293.515 104.163 288.058 104.302M303.661 103.647C310.02 103.257 315.927 102.721 321.329 102.013M315.509 47.7646L337.48 98.9614M315.509 47.7646H304.754M315.509 47.7646H326.263M337.48 98.9614C332.776 100.217 327.368 101.223 321.329 102.013M337.48 98.9614C344.387 97.1177 349.778 94.7346 353.419 91.6989M216.5 47.7646L189.5 91.6989M238.5 47.7646L221.5 102.013M260.379 47.7646L254.5 104.302M282.629 47.7646L288.058 104.302M304.754 47.7646L321.329 102.013M326.263 47.7646L353.419 91.6989M85.8954 34.5H464.013" stroke="white" stroke-width="2"/>
<path d="M100.632 192.207C98.5348 186.926 105.365 180.625 111.395 181.711C116.582 182.646 120.217 187.614 118.569 192.207C117.085 196.346 112.489 198.255 107.807 197.455C104.28 196.852 101.857 195.291 100.632 192.207Z" fill="#333333" stroke="white" stroke-width="2"/>
<path d="M130.767 192.207C128.67 186.926 135.5 180.625 141.529 181.711C146.716 182.646 150.351 187.614 148.704 192.207C147.22 196.346 142.624 198.255 137.942 197.455C134.415 196.852 131.992 195.291 130.767 192.207Z" fill="#333333" stroke="white" stroke-width="2"/>
<path d="M160.901 192.207C158.804 186.926 165.635 180.625 171.664 181.711C176.851 182.646 180.486 187.614 178.839 192.207C177.355 196.346 172.759 198.255 168.076 197.455C164.549 196.852 162.126 195.291 160.901 192.207Z" fill="#333333" stroke="white" stroke-width="2"/>
<path d="M191.036 192.207C188.939 186.926 195.769 180.625 201.799 181.711C206.986 182.646 210.621 187.614 208.974 192.207C207.489 196.346 202.893 198.255 198.211 197.455C194.684 196.852 192.261 195.291 191.036 192.207Z" fill="#333333" stroke="white" stroke-width="2"/>
<path d="M221.171 192.207C219.073 186.926 225.904 180.625 231.933 181.711C237.12 182.646 240.755 187.614 239.108 192.207C237.624 196.346 233.028 198.255 228.346 197.455C224.818 196.852 222.395 195.291 221.171 192.207Z" fill="#333333" stroke="white" stroke-width="2"/>
<path d="M251.306 192.207C249.208 186.926 256.039 180.625 262.068 181.711C267.255 182.646 270.89 187.614 269.243 192.207C267.759 196.346 263.163 198.255 258.48 197.455C254.953 196.852 252.53 195.291 251.306 192.207Z" fill="#333333" stroke="white" stroke-width="2"/>
<path d="M281.44 192.207C279.343 186.926 286.173 180.625 292.202 181.711C297.389 182.646 301.025 187.614 299.377 192.207C297.893 196.346 293.297 198.255 288.615 197.455C285.088 196.852 282.665 195.291 281.44 192.207Z" fill="#333333" stroke="white" stroke-width="2"/>
<path d="M311.575 192.207C309.477 186.926 316.308 180.625 322.337 181.711C327.524 182.646 331.159 187.614 329.512 192.207C328.028 196.346 323.432 198.255 318.749 197.455C315.222 196.852 312.799 195.291 311.575 192.207Z" fill="#333333" stroke="white" stroke-width="2"/>
<path d="M341.709 192.207C339.612 186.926 346.442 180.625 352.471 181.711C357.658 182.646 361.294 187.614 359.646 192.207C358.162 196.346 353.566 198.255 348.884 197.455C345.357 196.852 342.934 195.291 341.709 192.207Z" fill="#333333" stroke="white" stroke-width="2"/>
<path d="M371.844 192.207C369.746 186.926 376.577 180.625 382.606 181.711C387.793 182.646 391.428 187.614 389.781 192.207C388.297 196.346 383.701 198.255 379.019 197.455C375.492 196.852 373.069 195.291 371.844 192.207Z" fill="#333333" stroke="white" stroke-width="2"/>
<path d="M401.978 192.207C399.881 186.926 406.711 180.625 412.741 181.711C417.928 182.646 421.563 187.614 419.916 192.207C418.432 196.346 413.836 198.255 409.153 197.455C405.626 196.852 403.203 195.291 401.978 192.207Z" fill="#333333" stroke="white" stroke-width="2"/>
<path d="M432.113 192.207C430.016 186.926 436.846 180.625 442.875 181.711C448.063 182.646 451.698 187.614 450.05 192.207C448.566 196.346 443.97 198.255 439.288 197.455C435.761 196.852 433.338 195.291 432.113 192.207Z" fill="#333333" stroke="white" stroke-width="2"/>
<path d="M86.2823 219.759C84.185 214.478 91.0154 208.177 97.0447 209.263C102.232 210.198 105.867 215.166 104.22 219.759C102.735 223.897 98.1395 225.807 93.4572 225.007C89.93 224.404 87.507 222.843 86.2823 219.759Z" fill="#333333" stroke="white" stroke-width="2"/>
<path d="M116.417 219.759C114.32 214.478 121.15 208.177 127.179 209.263C132.366 210.198 136.002 215.166 134.354 219.759C132.87 223.897 128.274 225.807 123.592 225.007C120.065 224.404 117.642 222.843 116.417 219.759Z" fill="#333333" stroke="white" stroke-width="2"/>
<path d="M146.552 219.759C144.454 214.478 151.285 208.177 157.314 209.263C162.501 210.198 166.136 215.166 164.489 219.759C163.005 223.897 158.409 225.807 153.727 225.007C150.199 224.404 147.776 222.843 146.552 219.759Z" fill="#333333" stroke="white" stroke-width="2"/>
<path d="M176.686 219.759C174.589 214.478 181.419 208.177 187.449 209.263C192.636 210.198 196.271 215.166 194.624 219.759C193.14 223.897 188.544 225.807 183.861 225.007C180.334 224.404 177.911 222.843 176.686 219.759Z" fill="#333333" stroke="white" stroke-width="2"/>
<path d="M206.821 219.759C204.724 214.478 211.554 208.177 217.583 209.263C222.77 210.198 226.405 215.166 224.758 219.759C223.274 223.897 218.678 225.807 213.996 225.007C210.469 224.404 208.046 222.843 206.821 219.759Z" fill="#333333" stroke="white" stroke-width="2"/>
<path d="M236.956 219.759C234.858 214.478 241.689 208.177 247.718 209.263C252.905 210.198 256.54 215.166 254.893 219.759C253.409 223.897 248.813 225.807 244.131 225.007C240.603 224.404 238.18 222.843 236.956 219.759Z" fill="#333333" stroke="white" stroke-width="2"/>
<path d="M267.09 219.759C264.993 214.478 271.823 208.177 277.853 209.263C283.04 210.198 286.675 215.166 285.027 219.759C283.543 223.897 278.947 225.807 274.265 225.007C270.738 224.404 268.315 222.843 267.09 219.759Z" fill="#333333" stroke="white" stroke-width="2"/>
<path d="M297.225 219.759C295.127 214.478 301.958 208.177 307.987 209.263C313.174 210.198 316.809 215.166 315.162 219.759C313.678 223.897 309.082 225.807 304.4 225.007C300.872 224.404 298.449 222.843 297.225 219.759Z" fill="#333333" stroke="white" stroke-width="2"/>
<path d="M327.359 219.759C325.262 214.478 332.092 208.177 338.122 209.263C343.309 210.198 346.944 215.166 345.297 219.759C343.812 223.897 339.216 225.807 334.534 225.007C331.007 224.404 328.584 222.843 327.359 219.759Z" fill="#333333" stroke="white" stroke-width="2"/>
<path d="M357.494 219.759C355.397 214.478 362.227 208.177 368.256 209.263C373.443 210.198 377.078 215.166 375.431 219.759C373.947 223.897 369.351 225.807 364.669 225.007C361.142 224.404 358.719 222.843 357.494 219.759Z" fill="#333333" stroke="white" stroke-width="2"/>
<path d="M387.629 219.759C385.531 214.478 392.362 208.177 398.391 209.263C403.578 210.198 407.213 215.166 405.566 219.759C404.082 223.897 399.486 225.807 394.803 225.007C391.276 224.404 388.853 222.843 387.629 219.759Z" fill="#333333" stroke="white" stroke-width="2"/>
<path d="M417.763 219.759C415.666 214.478 422.496 208.177 428.525 209.263C433.712 210.198 437.348 215.166 435.7 219.759C434.216 223.897 429.62 225.807 424.938 225.007C421.411 224.404 418.988 222.843 417.763 219.759Z" fill="#333333" stroke="white" stroke-width="2"/>
<path d="M447.898 219.759C445.8 214.478 452.631 208.177 458.66 209.263C463.847 210.198 467.482 215.166 465.835 219.759C464.351 223.897 459.755 225.807 455.073 225.007C451.546 224.404 449.122 222.843 447.898 219.759Z" fill="#333333" stroke="white" stroke-width="2"/>
<path d="M86.2823 247.311C84.185 242.03 91.0154 235.729 97.0447 236.815C102.232 237.75 105.867 242.718 104.22 247.311C102.735 251.449 98.1395 253.359 93.4572 252.559C89.93 251.956 87.507 250.395 86.2823 247.311Z" fill="#333333" stroke="white" stroke-width="2"/>
<path d="M116.417 247.311C114.32 242.03 121.15 235.729 127.179 236.815C132.366 237.75 136.002 242.718 134.354 247.311C132.87 251.449 128.274 253.359 123.592 252.559C120.065 251.956 117.642 250.395 116.417 247.311Z" fill="#333333" stroke="white" stroke-width="2"/>
<path d="M146.552 247.311C144.454 242.03 151.285 235.729 157.314 236.815C162.501 237.75 166.136 242.718 164.489 247.311C163.005 251.449 158.409 253.359 153.727 252.559C150.199 251.956 147.776 250.395 146.552 247.311Z" fill="#333333" stroke="white" stroke-width="2"/>
<path d="M176.686 247.311C174.589 242.03 181.419 235.729 187.449 236.815C192.636 237.75 196.271 242.718 194.624 247.311C193.14 251.449 188.544 253.359 183.861 252.559C180.334 251.956 177.911 250.395 176.686 247.311Z" fill="#333333" stroke="white" stroke-width="2"/>
<path d="M206.821 247.311C204.724 242.03 211.554 235.729 217.583 236.815C222.77 237.75 226.405 242.718 224.758 247.311C223.274 251.449 218.678 253.359 213.996 252.559C210.469 251.956 208.046 250.395 206.821 247.311Z" fill="#333333" stroke="white" stroke-width="2"/>
<path d="M236.956 247.311C234.858 242.03 241.689 235.729 247.718 236.815C252.905 237.75 256.54 242.718 254.893 247.311C253.409 251.449 248.813 253.359 244.131 252.559C240.603 251.956 238.18 250.395 236.956 247.311Z" fill="#333333" stroke="white" stroke-width="2"/>
<path d="M267.09 247.311C264.993 242.03 271.823 235.729 277.853 236.815C283.04 237.75 286.675 242.718 285.027 247.311C283.543 251.449 278.947 253.359 274.265 252.559C270.738 251.956 268.315 250.395 267.09 247.311Z" fill="#333333" stroke="white" stroke-width="2"/>
<path d="M297.225 247.311C295.127 242.03 301.958 235.729 307.987 236.815C313.174 237.75 316.809 242.718 315.162 247.311C313.678 251.449 309.082 253.359 304.4 252.559C300.872 251.956 298.449 250.395 297.225 247.311Z" fill="#333333" stroke="white" stroke-width="2"/>
<path d="M327.359 247.311C325.262 242.03 332.092 235.729 338.122 236.815C343.309 237.75 346.944 242.718 345.297 247.311C343.812 251.449 339.216 253.359 334.534 252.559C331.007 251.956 328.584 250.395 327.359 247.311Z" fill="#333333" stroke="white" stroke-width="2"/>
<path d="M357.494 247.311C355.397 242.03 362.227 235.729 368.256 236.815C373.443 237.75 377.078 242.718 375.431 247.311C373.947 251.449 369.351 253.359 364.669 252.559C361.142 251.956 358.719 250.395 357.494 247.311Z" fill="#333333" stroke="white" stroke-width="2"/>
<path d="M387.629 247.311C385.531 242.03 392.362 235.729 398.391 236.815C403.578 237.75 407.213 242.718 405.566 247.311C404.082 251.449 399.486 253.359 394.803 252.559C391.276 251.956 388.853 250.395 387.629 247.311Z" fill="#333333" stroke="white" stroke-width="2"/>
<path d="M417.763 247.311C415.666 242.03 422.496 235.729 428.525 236.815C433.712 237.75 437.348 242.718 435.7 247.311C434.216 251.449 429.62 253.359 424.938 252.559C421.411 251.956 418.988 250.395 417.763 247.311Z" fill="#333333" stroke="white" stroke-width="2"/>
<path d="M447.898 247.311C445.8 242.03 452.631 235.729 458.66 236.815C463.847 237.75 467.482 242.718 465.835 247.311C464.351 251.449 459.755 253.359 455.073 252.559C451.546 251.956 449.122 250.395 447.898 247.311Z" fill="#333333" stroke="white" stroke-width="2"/>
<path d="M86.2823 274.863C84.185 269.582 91.0154 263.281 97.0447 264.367C102.232 265.302 105.867 270.27 104.22 274.863C102.735 279.001 98.1395 280.911 93.4572 280.111C89.93 279.508 87.507 277.947 86.2823 274.863Z" fill="#333333" stroke="white" stroke-width="2"/>
<path d="M116.417 274.863C114.32 269.582 121.15 263.281 127.179 264.367C132.366 265.302 136.002 270.27 134.354 274.863C132.87 279.001 128.274 280.911 123.592 280.111C120.065 279.508 117.642 277.947 116.417 274.863Z" fill="#333333" stroke="white" stroke-width="2"/>
<path d="M146.552 274.863C144.454 269.582 151.285 263.281 157.314 264.367C162.501 265.302 166.136 270.27 164.489 274.863C163.005 279.001 158.409 280.911 153.727 280.111C150.199 279.508 147.776 277.947 146.552 274.863Z" fill="#333333" stroke="white" stroke-width="2"/>
<path d="M176.686 274.863C174.589 269.582 181.419 263.281 187.449 264.367C192.636 265.302 196.271 270.27 194.624 274.863C193.14 279.001 188.544 280.911 183.861 280.111C180.334 279.508 177.911 277.947 176.686 274.863Z" fill="#333333" stroke="white" stroke-width="2"/>
<path d="M206.821 274.863C204.724 269.582 211.554 263.281 217.583 264.367C222.77 265.302 226.405 270.27 224.758 274.863C223.274 279.001 218.678 280.911 213.996 280.111C210.469 279.508 208.046 277.947 206.821 274.863Z" fill="#333333" stroke="white" stroke-width="2"/>
<path d="M236.956 274.863C234.858 269.582 241.689 263.281 247.718 264.367C252.905 265.302 256.54 270.27 254.893 274.863C253.409 279.001 248.813 280.911 244.131 280.111C240.603 279.508 238.18 277.947 236.956 274.863Z" fill="#333333" stroke="white" stroke-width="2"/>
<path d="M267.09 274.863C264.993 269.582 271.823 263.281 277.853 264.367C283.04 265.302 286.675 270.27 285.027 274.863C283.543 279.001 278.947 280.911 274.265 280.111C270.738 279.508 268.315 277.947 267.09 274.863Z" fill="#333333" stroke="white" stroke-width="2"/>
<path d="M297.225 274.863C295.127 269.582 301.958 263.281 307.987 264.367C313.174 265.302 316.809 270.27 315.162 274.863C313.678 279.001 309.082 280.911 304.4 280.111C300.872 279.508 298.449 277.947 297.225 274.863Z" fill="#333333" stroke="white" stroke-width="2"/>
<path d="M327.359 274.863C325.262 269.582 332.092 263.281 338.122 264.367C343.309 265.302 346.944 270.27 345.297 274.863C343.812 279.001 339.216 280.911 334.534 280.111C331.007 279.508 328.584 277.947 327.359 274.863Z" fill="#333333" stroke="white" stroke-width="2"/>
<path d="M357.494 274.863C355.397 269.582 362.227 263.281 368.256 264.367C373.443 265.302 377.078 270.27 375.431 274.863C373.947 279.001 369.351 280.911 364.669 280.111C361.142 279.508 358.719 277.947 357.494 274.863Z" fill="#333333" stroke="white" stroke-width="2"/>
<path d="M387.629 274.863C385.531 269.582 392.362 263.281 398.391 264.367C403.578 265.302 407.213 270.27 405.566 274.863C404.082 279.001 399.486 280.911 394.803 280.111C391.276 279.508 388.853 277.947 387.629 274.863Z" fill="#333333" stroke="white" stroke-width="2"/>
<path d="M417.763 274.863C415.666 269.582 422.496 263.281 428.525 264.367C433.712 265.302 437.348 270.27 435.7 274.863C434.216 279.001 429.62 280.911 424.938 280.111C421.411 279.508 418.988 277.947 417.763 274.863Z" fill="#333333" stroke="white" stroke-width="2"/>
<path d="M447.898 274.863C445.8 269.582 452.631 263.281 458.66 264.367C463.847 265.302 467.482 270.27 465.835 274.863C464.351 279.001 459.755 280.911 455.073 280.111C451.546 279.508 449.122 277.947 447.898 274.863Z" fill="#333333" stroke="white" stroke-width="2"/>
</svg>
