<svg width="565" height="568" viewBox="0 0 565 568" fill="none" xmlns="http://www.w3.org/2000/svg">
<path d="M295.206 567.372C417.081 567.372 516.187 505.43 561.054 398.287C566.746 384.894 565.741 373.846 559.044 367.149C554.023 361.792 543.644 361.122 532.93 365.474C505.138 376.523 472.996 381.212 438.174 381.212C288.174 381.212 190.073 286.122 190.073 141.479C190.073 101.97 197.773 58.1087 208.153 37.6844C214.514 24.6259 214.514 13.5773 209.157 6.88156C203.13 -0.485588 192.081 -1.82415 177.683 3.19727C70.8756 42.3716 0.562744 154.202 0.562744 278.422C0.562744 444.492 125.787 567.372 295.206 567.372Z" fill="black" fill-opacity="0.8"/>
</svg>
