<svg width="486" height="328" viewBox="0 0 486 328" fill="none" xmlns="http://www.w3.org/2000/svg">
<path d="M438.34 45.0744C454.125 45.0744 447.668 158.562 455.56 167.09C463.453 175.618 504.35 305.505 471.345 317.969C438.34 330.433 43.234 328.465 14.5344 317.969C-14.1652 307.473 9.83729 188.38 22.0344 167.09C34.2315 145.8 22.9132 45.0742 44.4379 45.0744M438.34 45.0744C424.207 45.0743 326.097 45.0743 305.719 45.0744C304.693 45.0744 304.369 46.4685 305.241 47.0072C313.612 52.1739 334.952 66.3804 328.564 73.2823C320.672 81.8103 144.887 86.4023 144.887 73.2823C144.887 62.8825 155.256 51.2461 159.555 46.868C160.195 46.2169 159.749 45.0744 158.836 45.0744C143.523 45.0744 63.8689 45.0745 44.4379 45.0744M438.34 45.0744L429.013 140.194M438.34 45.0744C438.34 45.0744 440 18.8804 440 16.6902C440 14.5 440 9 429.013 4.50002C418.026 2.95639e-05 60.5 0.499975 50.8953 4.50002C41.6281 8.35949 42.4284 16.5853 42.496 17.1586C42.4987 17.1814 42.5008 17.2017 42.5024 17.2246L44.4379 45.0744M44.4379 45.0744L50.8953 140.194M50.8953 140.194H429.013M50.8953 140.194L58.0702 167.09M429.013 140.194L416.098 167.09M58.0702 167.09H416.098M58.0702 167.09C58.0702 167.09 12.1508 281.27 35.1105 293.078C43.2156 297.246 100.516 306.017 164.977 307.473M416.098 167.09C416.098 167.09 481.39 279.302 455.56 293.078C445.933 298.212 388.267 306.407 318.519 307.473M164.977 307.473C164.977 314.689 318.519 315.345 318.519 307.473M164.977 307.473C164.977 307.473 164.977 304.849 164.977 297.633C164.977 290.417 318.519 291.729 318.519 297.633C318.519 303.537 318.519 302.881 318.519 307.473" stroke="white" stroke-width="2"/>
<path d="M65.6322 189.517C63.5348 184.236 70.3653 177.935 76.3945 179.021C81.5816 179.955 85.2166 184.924 83.5695 189.517C82.0853 193.655 77.4894 195.565 72.8071 194.765C69.2799 194.162 66.8568 192.601 65.6322 189.517Z" stroke="white" stroke-width="2"/>
<path d="M95.7669 189.517C93.6696 184.236 100.5 177.935 106.529 179.021C111.716 179.955 115.351 184.924 113.704 189.517C112.22 193.655 107.624 195.565 102.942 194.765C99.4147 194.162 96.9916 192.601 95.7669 189.517Z" stroke="white" stroke-width="2"/>
<path d="M125.901 189.517C123.804 184.236 130.635 177.935 136.664 179.021C141.851 179.955 145.486 184.924 143.839 189.517C142.355 193.655 137.759 195.565 133.076 194.765C129.549 194.162 127.126 192.601 125.901 189.517Z" stroke="white" stroke-width="2"/>
<path d="M156.036 189.517C153.939 184.236 160.769 177.935 166.799 179.021C171.986 179.955 175.621 184.924 173.974 189.517C172.489 193.655 167.893 195.565 163.211 194.765C159.684 194.162 157.261 192.601 156.036 189.517Z" stroke="white" stroke-width="2"/>
<path d="M186.171 189.517C184.073 184.236 190.904 177.935 196.933 179.021C202.12 179.955 205.755 184.924 204.108 189.517C202.624 193.655 198.028 195.565 193.346 194.765C189.818 194.162 187.395 192.601 186.171 189.517Z" stroke="white" stroke-width="2"/>
<path d="M216.306 189.517C214.208 184.236 221.039 177.935 227.068 179.021C232.255 179.955 235.89 184.924 234.243 189.517C232.759 193.655 228.163 195.565 223.48 194.765C219.953 194.162 217.53 192.601 216.306 189.517Z" stroke="white" stroke-width="2"/>
<path d="M246.44 189.517C244.343 184.236 251.173 177.935 257.202 179.021C262.389 179.955 266.025 184.924 264.377 189.517C262.893 193.655 258.297 195.565 253.615 194.765C250.088 194.162 247.665 192.601 246.44 189.517Z" stroke="white" stroke-width="2"/>
<path d="M276.575 189.517C274.477 184.236 281.308 177.935 287.337 179.021C292.524 179.955 296.159 184.924 294.512 189.517C293.028 193.655 288.432 195.565 283.749 194.765C280.222 194.162 277.799 192.601 276.575 189.517Z" stroke="white" stroke-width="2"/>
<path d="M306.709 189.517C304.612 184.236 311.442 177.935 317.471 179.021C322.658 179.955 326.294 184.924 324.646 189.517C323.162 193.655 318.566 195.565 313.884 194.765C310.357 194.162 307.934 192.601 306.709 189.517Z" stroke="white" stroke-width="2"/>
<path d="M336.844 189.517C334.746 184.236 341.577 177.935 347.606 179.021C352.793 179.955 356.428 184.924 354.781 189.517C353.297 193.655 348.701 195.565 344.019 194.765C340.492 194.162 338.069 192.601 336.844 189.517Z" stroke="white" stroke-width="2"/>
<path d="M366.978 189.517C364.881 184.236 371.711 177.935 377.741 179.021C382.928 179.955 386.563 184.924 384.916 189.517C383.432 193.655 378.836 195.565 374.153 194.765C370.626 194.162 368.203 192.601 366.978 189.517Z" stroke="white" stroke-width="2"/>
<path d="M397.113 189.517C395.016 184.236 401.846 177.935 407.875 179.021C413.063 179.955 416.698 184.924 415.05 189.517C413.566 193.655 408.97 195.565 404.288 194.765C400.761 194.162 398.338 192.601 397.113 189.517Z" stroke="white" stroke-width="2"/>
<path d="M51.2823 217.069C49.185 211.788 56.0154 205.487 62.0447 206.573C67.2317 207.507 70.8668 212.476 69.2196 217.069C67.7355 221.207 63.1395 223.117 58.4572 222.317C54.93 221.714 52.507 220.153 51.2823 217.069Z" stroke="white" stroke-width="2"/>
<path d="M81.4171 217.069C79.3197 211.788 86.1502 205.487 92.1794 206.573C97.3665 207.507 101.002 212.476 99.3544 217.069C97.8702 221.207 93.2743 223.117 88.592 222.317C85.0648 221.714 82.6418 220.153 81.4171 217.069Z" stroke="white" stroke-width="2"/>
<path d="M111.552 217.069C109.454 211.788 116.285 205.487 122.314 206.573C127.501 207.507 131.136 212.476 129.489 217.069C128.005 221.207 123.409 223.117 118.727 222.317C115.199 221.714 112.776 220.153 111.552 217.069Z" stroke="white" stroke-width="2"/>
<path d="M141.686 217.069C139.589 211.788 146.419 205.487 152.449 206.573C157.636 207.507 161.271 212.476 159.624 217.069C158.14 221.207 153.544 223.117 148.861 222.317C145.334 221.714 142.911 220.153 141.686 217.069Z" stroke="white" stroke-width="2"/>
<path d="M171.821 217.069C169.724 211.788 176.554 205.487 182.583 206.573C187.77 207.507 191.405 212.476 189.758 217.069C188.274 221.207 183.678 223.117 178.996 222.317C175.469 221.714 173.046 220.153 171.821 217.069Z" stroke="white" stroke-width="2"/>
<path d="M201.956 217.069C199.858 211.788 206.689 205.487 212.718 206.573C217.905 207.507 221.54 212.476 219.893 217.069C218.409 221.207 213.813 223.117 209.131 222.317C205.603 221.714 203.18 220.153 201.956 217.069Z" stroke="white" stroke-width="2"/>
<path d="M232.09 217.069C229.993 211.788 236.823 205.487 242.853 206.573C248.04 207.507 251.675 212.476 250.027 217.069C248.543 221.207 243.947 223.117 239.265 222.317C235.738 221.714 233.315 220.153 232.09 217.069Z" stroke="white" stroke-width="2"/>
<path d="M262.225 217.069C260.127 211.788 266.958 205.487 272.987 206.573C278.174 207.507 281.809 212.476 280.162 217.069C278.678 221.207 274.082 223.117 269.4 222.317C265.872 221.714 263.449 220.153 262.225 217.069Z" stroke="white" stroke-width="2"/>
<path d="M292.359 217.069C290.262 211.788 297.092 205.487 303.122 206.573C308.309 207.507 311.944 212.476 310.297 217.069C308.812 221.207 304.216 223.117 299.534 222.317C296.007 221.714 293.584 220.153 292.359 217.069Z" stroke="white" stroke-width="2"/>
<path d="M322.494 217.069C320.397 211.788 327.227 205.487 333.256 206.573C338.443 207.507 342.078 212.476 340.431 217.069C338.947 221.207 334.351 223.117 329.669 222.317C326.142 221.714 323.719 220.153 322.494 217.069Z" stroke="white" stroke-width="2"/>
<path d="M352.629 217.069C350.531 211.788 357.362 205.487 363.391 206.573C368.578 207.507 372.213 212.476 370.566 217.069C369.082 221.207 364.486 223.117 359.803 222.317C356.276 221.714 353.853 220.153 352.629 217.069Z" stroke="white" stroke-width="2"/>
<path d="M382.763 217.069C380.666 211.788 387.496 205.487 393.525 206.573C398.712 207.507 402.348 212.476 400.7 217.069C399.216 221.207 394.62 223.117 389.938 222.317C386.411 221.714 383.988 220.153 382.763 217.069Z" stroke="white" stroke-width="2"/>
<path d="M412.898 217.069C410.8 211.788 417.631 205.487 423.66 206.573C428.847 207.507 432.482 212.476 430.835 217.069C429.351 221.207 424.755 223.117 420.073 222.317C416.546 221.714 414.122 220.153 412.898 217.069Z" stroke="white" stroke-width="2"/>
<path d="M51.2823 244.621C49.185 239.34 56.0154 233.039 62.0447 234.125C67.2317 235.059 70.8668 240.028 69.2196 244.621C67.7355 248.759 63.1395 250.669 58.4572 249.869C54.93 249.266 52.507 247.705 51.2823 244.621Z" stroke="white" stroke-width="2"/>
<path d="M81.4171 244.621C79.3197 239.34 86.1502 233.039 92.1794 234.125C97.3665 235.059 101.002 240.028 99.3544 244.621C97.8702 248.759 93.2743 250.669 88.592 249.869C85.0648 249.266 82.6418 247.705 81.4171 244.621Z" stroke="white" stroke-width="2"/>
<path d="M111.552 244.621C109.454 239.34 116.285 233.039 122.314 234.125C127.501 235.059 131.136 240.028 129.489 244.621C128.005 248.759 123.409 250.669 118.727 249.869C115.199 249.266 112.776 247.705 111.552 244.621Z" stroke="white" stroke-width="2"/>
<path d="M141.686 244.621C139.589 239.34 146.419 233.039 152.449 234.125C157.636 235.059 161.271 240.028 159.624 244.621C158.14 248.759 153.544 250.669 148.861 249.869C145.334 249.266 142.911 247.705 141.686 244.621Z" stroke="white" stroke-width="2"/>
<path d="M171.821 244.621C169.724 239.34 176.554 233.039 182.583 234.125C187.77 235.059 191.405 240.028 189.758 244.621C188.274 248.759 183.678 250.669 178.996 249.869C175.469 249.266 173.046 247.705 171.821 244.621Z" stroke="white" stroke-width="2"/>
<path d="M201.956 244.621C199.858 239.34 206.689 233.039 212.718 234.125C217.905 235.059 221.54 240.028 219.893 244.621C218.409 248.759 213.813 250.669 209.131 249.869C205.603 249.266 203.18 247.705 201.956 244.621Z" stroke="white" stroke-width="2"/>
<path d="M232.09 244.621C229.993 239.34 236.823 233.039 242.853 234.125C248.04 235.059 251.675 240.028 250.027 244.621C248.543 248.759 243.947 250.669 239.265 249.869C235.738 249.266 233.315 247.705 232.09 244.621Z" stroke="white" stroke-width="2"/>
<path d="M262.225 244.621C260.127 239.34 266.958 233.039 272.987 234.125C278.174 235.059 281.809 240.028 280.162 244.621C278.678 248.759 274.082 250.669 269.4 249.869C265.872 249.266 263.449 247.705 262.225 244.621Z" stroke="white" stroke-width="2"/>
<path d="M292.359 244.621C290.262 239.34 297.092 233.039 303.122 234.125C308.309 235.059 311.944 240.028 310.297 244.621C308.812 248.759 304.216 250.669 299.534 249.869C296.007 249.266 293.584 247.705 292.359 244.621Z" stroke="white" stroke-width="2"/>
<path d="M322.494 244.621C320.397 239.34 327.227 233.039 333.256 234.125C338.443 235.059 342.078 240.028 340.431 244.621C338.947 248.759 334.351 250.669 329.669 249.869C326.142 249.266 323.719 247.705 322.494 244.621Z" stroke="white" stroke-width="2"/>
<path d="M352.629 244.621C350.531 239.34 357.362 233.039 363.391 234.125C368.578 235.059 372.213 240.028 370.566 244.621C369.082 248.759 364.486 250.669 359.803 249.869C356.276 249.266 353.853 247.705 352.629 244.621Z" stroke="white" stroke-width="2"/>
<path d="M382.763 244.621C380.666 239.34 387.496 233.039 393.525 234.125C398.712 235.059 402.348 240.028 400.7 244.621C399.216 248.759 394.62 250.669 389.938 249.869C386.411 249.266 383.988 247.705 382.763 244.621Z" stroke="white" stroke-width="2"/>
<path d="M412.898 244.621C410.8 239.34 417.631 233.039 423.66 234.125C428.847 235.059 432.482 240.028 430.835 244.621C429.351 248.759 424.755 250.669 420.073 249.869C416.546 249.266 414.122 247.705 412.898 244.621Z" stroke="white" stroke-width="2"/>
<path d="M51.2823 272.173C49.185 266.892 56.0154 260.591 62.0447 261.677C67.2317 262.611 70.8668 267.58 69.2196 272.173C67.7355 276.311 63.1395 278.221 58.4572 277.421C54.93 276.818 52.507 275.257 51.2823 272.173Z" stroke="white" stroke-width="2"/>
<path d="M81.4171 272.173C79.3197 266.892 86.1502 260.591 92.1794 261.677C97.3665 262.611 101.002 267.58 99.3544 272.173C97.8702 276.311 93.2743 278.221 88.592 277.421C85.0648 276.818 82.6418 275.257 81.4171 272.173Z" stroke="white" stroke-width="2"/>
<path d="M111.552 272.173C109.454 266.892 116.285 260.591 122.314 261.677C127.501 262.611 131.136 267.58 129.489 272.173C128.005 276.311 123.409 278.221 118.727 277.421C115.199 276.818 112.776 275.257 111.552 272.173Z" stroke="white" stroke-width="2"/>
<path d="M141.686 272.173C139.589 266.892 146.419 260.591 152.449 261.677C157.636 262.611 161.271 267.58 159.624 272.173C158.14 276.311 153.544 278.221 148.861 277.421C145.334 276.818 142.911 275.257 141.686 272.173Z" stroke="white" stroke-width="2"/>
<path d="M171.821 272.173C169.724 266.892 176.554 260.591 182.583 261.677C187.77 262.611 191.405 267.58 189.758 272.173C188.274 276.311 183.678 278.221 178.996 277.421C175.469 276.818 173.046 275.257 171.821 272.173Z" stroke="white" stroke-width="2"/>
<path d="M201.956 272.173C199.858 266.892 206.689 260.591 212.718 261.677C217.905 262.611 221.54 267.58 219.893 272.173C218.409 276.311 213.813 278.221 209.131 277.421C205.603 276.818 203.18 275.257 201.956 272.173Z" stroke="white" stroke-width="2"/>
<path d="M232.09 272.173C229.993 266.892 236.823 260.591 242.853 261.677C248.04 262.611 251.675 267.58 250.027 272.173C248.543 276.311 243.947 278.221 239.265 277.421C235.738 276.818 233.315 275.257 232.09 272.173Z" stroke="white" stroke-width="2"/>
<path d="M262.225 272.173C260.127 266.892 266.958 260.591 272.987 261.677C278.174 262.611 281.809 267.58 280.162 272.173C278.678 276.311 274.082 278.221 269.4 277.421C265.872 276.818 263.449 275.257 262.225 272.173Z" stroke="white" stroke-width="2"/>
<path d="M292.359 272.173C290.262 266.892 297.092 260.591 303.122 261.677C308.309 262.611 311.944 267.58 310.297 272.173C308.812 276.311 304.216 278.221 299.534 277.421C296.007 276.818 293.584 275.257 292.359 272.173Z" stroke="white" stroke-width="2"/>
<path d="M322.494 272.173C320.397 266.892 327.227 260.591 333.256 261.677C338.443 262.611 342.078 267.58 340.431 272.173C338.947 276.311 334.351 278.221 329.669 277.421C326.142 276.818 323.719 275.257 322.494 272.173Z" stroke="white" stroke-width="2"/>
<path d="M352.629 272.173C350.531 266.892 357.362 260.591 363.391 261.677C368.578 262.611 372.213 267.58 370.566 272.173C369.082 276.311 364.486 278.221 359.803 277.421C356.276 276.818 353.853 275.257 352.629 272.173Z" stroke="white" stroke-width="2"/>
<path d="M382.763 272.173C380.666 266.892 387.496 260.591 393.525 261.677C398.712 262.611 402.348 267.58 400.7 272.173C399.216 276.311 394.62 278.221 389.938 277.421C386.411 276.818 383.988 275.257 382.763 272.173Z" stroke="white" stroke-width="2"/>
<path d="M412.898 272.173C410.8 266.892 417.631 260.591 423.66 261.677C428.847 262.611 432.482 267.58 430.835 272.173C429.351 276.311 424.755 278.221 420.073 277.421C416.546 276.818 414.122 275.257 412.898 272.173Z" stroke="white" stroke-width="2"/>
</svg>
