<svg width="144" height="38" viewBox="0 0 144 38" fill="none" xmlns="http://www.w3.org/2000/svg">
<g clip-path="url(#clip0_153_8)">
<path d="M0 9.69118V37.9999H4.78653V19.7422V4.84744V4.84491L0 9.69118Z" fill="black" fill-opacity="0.72"/>
<path d="M4.7865 4.84753H30.0175V0H9.55927L4.7865 4.84753Z" fill="black" fill-opacity="0.72"/>
<path d="M27.6248 14.8998H9.57178L4.7865 19.7421H27.6248V14.8998Z" fill="black" fill-opacity="0.72"/>
<path d="M76.7858 9.68995V28.31L81.571 33.1575V19.7422V4.84748V4.84241L76.7858 9.68995Z" fill="black" fill-opacity="0.72"/>
<path d="M106.804 38V33.1577H81.5712L86.3578 38H106.804Z" fill="black" fill-opacity="0.72"/>
<path d="M81.5712 4.84753H106.804V0H86.3453L81.5712 4.84753Z" fill="black" fill-opacity="0.72"/>
<path d="M104.411 14.8998H86.3578L81.5712 19.7421H104.411V14.8998Z" fill="black" fill-opacity="0.72"/>
<path d="M67.2139 37.9999V24.5897L62.4274 19.7422V37.9999H67.2139Z" fill="black" fill-opacity="0.72"/>
<path d="M62.4276 14.8998L46.7672 15.0214L41.982 19.8626V4.845L62.4276 4.84247L57.6424 0H37.1968V38H41.982V19.8626L62.4276 19.7423H62.4327L62.4338 19.7359L67.2142 14.896V9.76727V9.69L62.4276 4.84247V14.8998Z" fill="black" fill-opacity="0.72"/>
<path d="M144 38V33.1577H118.768L123.554 38H144Z" fill="black" fill-opacity="0.72"/>
<path d="M144 0H123.541L118.768 4.84753H144V0Z" fill="black" fill-opacity="0.72"/>
<path d="M118.768 4.84241L113.982 9.68995V28.31L118.768 33.1575V4.84748V4.84241Z" fill="black" fill-opacity="0.72"/>
</g>
<defs>
<clipPath id="clip0_153_8">
<rect width="144" height="38" fill="white"/>
</clipPath>
</defs>
</svg>
