<svg width="418" height="223" viewBox="0 0 418 223" fill="none" xmlns="http://www.w3.org/2000/svg">
<rect width="418" height="223" fill="#D4DBAE"/>
<rect width="120" height="120" transform="matrix(0.866025 0.5 -0.866025 0.5 207.923 39.7742)" fill="#292727"/>
<rect width="120" height="48" transform="matrix(0.866025 0.5 0 1 104 99.7742)" fill="#313131"/>
<rect width="120" height="48" transform="matrix(0.866025 -0.5 0 1 207.923 159.774)" fill="#1A1A1A"/>
<mask id="mask0_250_180" style="mask-type:alpha" maskUnits="userSpaceOnUse" x="104" y="39" width="208" height="121">
<rect width="120" height="120" transform="matrix(0.866025 0.5 -0.866025 0.5 207.923 39.7742)" fill="#D9D9D9"/>
</mask>
<g mask="url(#mask0_250_180)">
<rect width="120" height="48" transform="matrix(0.866025 0.5 0 1 207.923 39.7742)" fill="#292727"/>
<rect width="120" height="48" transform="matrix(0.866025 -0.5 0 1 104 99.7742)" fill="#404040"/>
<rect width="120" height="120" transform="matrix(0.866025 0.5 -0.866025 0.5 207.923 87.7742)" fill="#6D6D6D"/>
</g>
<rect width="1.6" height="6.4" transform="matrix(0.866025 0.5 -0.866025 0.5 164.155 23.2366)" fill="#4D4D4D"/>
<rect width="1.6" height="9.6" transform="matrix(0.866025 0.5 0 1 158.613 26.4365)" fill="#262626"/>
<rect width="6.4" height="9.6" transform="matrix(0.866025 -0.5 0 1 159.998 27.2366)" fill="black"/>
<path fill-rule="evenodd" clip-rule="evenodd" d="M209.511 36.7444L243.48 56.3565L220.666 70.4485L189.171 52.6517V48.4876L209.511 36.7444Z" fill="#666666"/>
<rect width="40" height="4" transform="matrix(0.866025 0.5 0 1 189.218 48.4628)" fill="#404040"/>
<rect width="6.4" height="12.8" transform="matrix(0.866025 0.5 -0.866025 0.5 158.32 60.8287)" fill="#808080"/>
<rect width="6.4" height="48.4083" transform="matrix(0.866025 0.5 0 1 147.235 67.2288)" fill="#595959"/>
<rect width="12.8" height="46.9857" transform="matrix(0.866025 -0.5 0 1 152.777 70.4287)" fill="#333333"/>
<rect width="6.4" height="6.4" transform="matrix(0.866025 0.5 -0.866025 0.5 160.962 62.4589)" fill="#808080"/>
<rect width="6.4" height="9.6" transform="matrix(0.866025 0.5 0 1 155.42 65.6589)" fill="#595959"/>
<rect width="6.4" height="9.6" transform="matrix(0.866025 -0.5 0 1 160.962 68.8589)" fill="#333333"/>
<circle cx="6.4" cy="6.4" r="6.4" transform="matrix(0.866025 0.5 0 1 151.791 53.2378)" fill="#595959"/>
<path d="M153.414 56.0495C154.496 55.4246 155.915 55.6188 157.333 56.4377L162.876 53.2377C161.457 52.4188 160.039 52.2246 158.957 52.8495L153.414 56.0495Z" fill="#808080"/>
<path d="M162.876 66.0378C162.876 62.5032 160.394 58.2051 157.333 56.4378L162.876 53.2378C165.937 55.0051 168.418 59.3032 168.418 62.8378L162.876 66.0378Z" fill="#333333"/>
<path d="M161.252 69.626C162.335 69.0012 162.876 67.6757 162.876 66.0378L168.418 62.8378C168.418 64.4757 167.877 65.8012 166.795 66.426L161.252 69.626Z" fill="#333333"/>
<circle cx="3.84" cy="3.84" r="3.84" transform="matrix(0.866025 0.5 0 1 152.094 57.2671)" fill="#D9D9D9"/>
<path d="M153.068 58.9542C153.718 58.5793 154.569 58.6957 155.42 59.1871L158.191 57.5871C157.34 57.0957 156.489 56.9793 155.84 57.3542L153.068 58.9542Z" fill="white"/>
<path d="M158.745 64.9472C158.745 62.8264 157.257 60.2475 155.42 59.1872L158.191 57.5872C160.028 58.6475 161.517 61.2264 161.517 63.3472L158.745 64.9472Z" fill="#B3B3B3"/>
<path d="M157.771 67.1001C158.421 66.7252 158.746 65.9299 158.746 64.9472L161.517 63.3472C161.517 64.3299 161.192 65.1252 160.543 65.5001L157.771 67.1001Z" fill="#B3B3B3"/>
<rect width="6.4" height="12.8" transform="matrix(0.866025 0.5 -0.866025 0.5 168.239 67.5468)" fill="#808080"/>
<rect width="6.4" height="49.087" transform="matrix(0.866025 0.5 0 1 157.154 73.9468)" fill="#595959"/>
<path d="M162.696 77.1467L173.781 70.7467V119.334L162.696 125.734V77.1467Z" fill="#333333"/>
<circle cx="1.92" cy="1.92" r="1.92" transform="matrix(0.866025 -0.5 0 1 168.309 78.2732)" fill="#B3B3B3"/>
<path d="M168.309 80.1933C168.309 80.6847 168.472 81.0824 168.796 81.2698L167.688 80.6298C167.363 80.4424 167.201 80.0447 167.201 79.5533L168.309 80.1933Z" fill="#D9D9D9"/>
<path d="M168.309 80.1932C168.309 79.1328 169.054 77.8434 169.972 77.3132L168.863 76.6732C167.945 77.2034 167.201 78.4928 167.201 79.5532L168.309 80.1932Z" fill="white"/>
<path d="M171.148 77.1968C170.823 77.0093 170.397 77.0676 169.972 77.3133L168.863 76.6733C169.289 76.4276 169.714 76.3693 170.039 76.5568L171.148 77.1968Z" fill="white"/>
<rect width="6.4" height="12.8" transform="matrix(0.866025 0.5 -0.866025 0.5 196.631 38.2524)" fill="#808080"/>
<rect width="6.4" height="54.3729" transform="matrix(0.866025 0.5 0 1 185.546 44.6525)" fill="#595959"/>
<path d="M191.088 47.8524L202.173 41.4524V95.7391L191.088 102.139L191.088 47.8524Z" fill="#333333"/>
<rect width="6.4" height="6.4" transform="matrix(0.866025 0.5 -0.866025 0.5 199.273 39.8826)" fill="#808080"/>
<rect width="6.4" height="9.6" transform="matrix(0.866025 0.5 0 1 193.731 43.0825)" fill="#595959"/>
<rect width="6.4" height="9.6" transform="matrix(0.866025 -0.5 0 1 199.273 46.2826)" fill="#333333"/>
<circle cx="6.4" cy="6.4" r="6.4" transform="matrix(0.866025 0.5 0 1 190.101 30.6613)" fill="#595959"/>
<path d="M191.725 33.4729C192.807 32.8481 194.226 33.0422 195.644 33.8612L201.187 30.6612C199.768 29.8422 198.35 29.6481 197.267 30.2729L191.725 33.4729Z" fill="#808080"/>
<path d="M201.187 43.4613C201.187 39.9266 198.705 35.6286 195.644 33.8613L201.187 30.6613C204.248 32.4286 206.729 36.7266 206.729 40.2613L201.187 43.4613Z" fill="#333333"/>
<path d="M199.563 47.0495C200.645 46.4246 201.187 45.0991 201.187 43.4612L206.729 40.2612C206.729 41.8991 206.188 43.2246 205.106 43.8495L199.563 47.0495Z" fill="#333333"/>
<circle cx="3.84" cy="3.84" r="3.84" transform="matrix(0.866025 0.5 0 1 190.405 34.6906)" fill="#D9D9D9"/>
<path d="M191.379 36.3776C192.029 36.0027 192.88 36.1192 193.731 36.6106L196.502 35.0106C195.651 34.5192 194.8 34.4027 194.151 34.7776L191.379 36.3776Z" fill="white"/>
<path d="M197.056 42.3707C197.056 40.25 195.567 37.6711 193.731 36.6107L196.502 35.0107C198.339 36.0711 199.828 38.65 199.828 40.7707L197.056 42.3707Z" fill="#B3B3B3"/>
<path d="M196.082 44.5236C196.732 44.1487 197.056 43.3534 197.056 42.3706L199.828 40.7706C199.828 41.7534 199.503 42.5487 198.854 42.9236L196.082 44.5236Z" fill="#B3B3B3"/>
<rect width="6.4" height="12.8" transform="matrix(0.866025 0.5 -0.866025 0.5 206.55 44.9705)" fill="#808080"/>
<rect width="6.4" height="54.0029" transform="matrix(0.866025 0.5 0 1 195.464 51.3705)" fill="#595959"/>
<rect width="12.8" height="55.4519" transform="matrix(0.866025 -0.5 0 1 201.007 54.5704)" fill="#333333"/>
<circle cx="1.92" cy="1.92" r="1.92" transform="matrix(0.866025 -0.5 0 1 206.62 55.6973)" fill="#B3B3B3"/>
<path d="M206.62 57.6171C206.62 58.1084 206.782 58.5061 207.107 58.6935L205.999 58.0535C205.674 57.8661 205.512 57.4684 205.512 56.9771L206.62 57.6171Z" fill="#D9D9D9"/>
<path d="M206.62 57.6172C206.62 56.5568 207.365 55.2674 208.283 54.7372L207.174 54.0972C206.256 54.6274 205.512 55.9168 205.512 56.9772L206.62 57.6172Z" fill="white"/>
<path d="M209.459 54.6206C209.134 54.4332 208.708 54.4914 208.283 54.7371L207.174 54.0971C207.6 53.8514 208.026 53.7932 208.35 53.9806L209.459 54.6206Z" fill="white"/>
<path d="M184.085 17.9202C185.921 16.8599 188.899 16.8599 190.736 17.9202L211.797 30.0802C213.634 31.1406 213.634 32.8599 211.797 33.9202L169.674 58.2402C167.837 59.3006 164.86 59.3006 163.023 58.2402L141.961 46.0802C140.125 45.0199 140.125 43.3006 141.961 42.2402L184.085 17.9202Z" fill="#B3B3B3"/>
<rect width="24.32" height="6.4" transform="matrix(0.866025 0.5 0 1 141.961 46.0803)" fill="#8D8D8D"/>
<rect width="48.64" height="6.4" transform="matrix(0.866025 -0.5 0 1 169.674 58.2402)" fill="#676767"/>
<path d="M140.584 44.1602C140.584 44.91 141.11 45.5888 141.961 46.0802V52.4802C141.11 51.9888 140.584 51.31 140.584 50.5602V44.1602Z" fill="#8D8D8D"/>
<path d="M163.023 58.2402C164.859 59.3006 167.837 59.3006 169.674 58.2402V64.6402C167.837 65.7006 164.859 65.7006 163.023 64.6402V58.2402Z" fill="#676767"/>
<path d="M213.175 32.0002C213.175 32.7501 212.649 33.4289 211.797 33.9202V40.3202C212.649 39.8289 213.175 39.1501 213.175 38.4002V32.0002Z" fill="#676767"/>
<path fill-rule="evenodd" clip-rule="evenodd" d="M243.435 56.3833L311.876 95.8972L207.953 155.897L104.029 95.8972L132.164 79.6538L168.614 98.4007L219.107 69.6013L243.435 56.3833Z" fill="#666666"/>
<rect width="120" height="4" transform="matrix(0.866025 0.5 0 1 104.029 95.8972)" fill="#313131"/>
<rect width="120" height="4" transform="matrix(0.866025 -0.5 0 1 207.953 155.897)" fill="#1A1A1A"/>
<rect width="1.6" height="6.4" transform="matrix(0.866025 0.5 -0.866025 0.5 193.037 42.0432)" fill="#4D4D4D"/>
<rect width="1.6" height="9.6" transform="matrix(0.866025 0.5 0 1 187.495 45.2432)" fill="#262626"/>
<rect width="6.4" height="9.6" transform="matrix(0.866025 -0.5 0 1 188.88 46.0432)" fill="black"/>
<circle cx="4.8" cy="4.8" r="4.32" transform="matrix(0.866025 0.5 -0.866025 0.5 201.064 123.053)" fill="#525252" stroke="#BFBFBF" stroke-width="0.96"/>
<path d="M195.186 127.853C195.186 128.79 195.844 129.638 196.908 130.253V134.093C195.844 133.478 195.186 132.63 195.186 131.693V127.853Z" fill="#C0C0C0"/>
<path d="M196.907 130.253C199.203 131.578 202.926 131.578 205.221 130.253V134.093C202.926 135.418 199.203 135.418 196.907 134.093V130.253Z" fill="#9A9A9A"/>
<path d="M206.943 127.853C206.943 128.79 206.285 129.638 205.221 130.253V134.093C206.285 133.478 206.943 132.63 206.943 131.693V127.853Z" fill="#9A9A9A"/>
<circle cx="4.8" cy="4.8" r="4.32" transform="matrix(0.866025 0.5 -0.866025 0.5 213.535 115.819)" fill="#525252" stroke="#BFBFBF" stroke-width="0.96"/>
<path d="M207.656 120.619C207.656 121.556 208.314 122.404 209.378 123.019V126.859C208.314 126.244 207.656 125.396 207.656 124.459V120.619Z" fill="#C0C0C0"/>
<path d="M209.378 123.019C211.674 124.344 215.396 124.344 217.692 123.019V126.859C215.396 128.184 211.674 128.184 209.378 126.859V123.019Z" fill="#9A9A9A"/>
<path d="M219.414 120.619C219.414 121.556 218.756 122.404 217.692 123.019V126.859C218.756 126.244 219.414 125.396 219.414 124.459V120.619Z" fill="#9A9A9A"/>
<circle cx="238.843" cy="104.344" r="10.7638" fill="black"/>
<circle cx="236.718" cy="102.694" r="7.9352" fill="#262626"/>
<path d="M129.047 81.6718C131.726 80.1254 136.069 80.1254 138.747 81.6718L149.832 88.0718C152.511 89.6182 152.511 92.1254 149.832 93.6718L138.747 100.072C136.069 101.618 131.726 101.618 129.047 100.072L117.962 93.6718C115.284 92.1254 115.284 89.6182 117.962 88.0718L129.047 81.6718Z" fill="#4D4D4D"/>
<rect width="12.8" height="6.4" transform="matrix(0.866025 0.5 0 1 117.962 93.6719)" fill="#262626"/>
<rect width="12.8" height="6.4" transform="matrix(0.866025 -0.5 0 1 138.747 100.072)" fill="black"/>
<path d="M115.953 90.8718C115.953 91.9653 116.721 92.9552 117.962 93.6718V100.072C116.721 99.3552 115.953 98.3653 115.953 97.2718V90.8718Z" fill="#262626"/>
<path d="M129.047 100.072C131.726 101.618 136.068 101.618 138.747 100.072V106.472C136.068 108.018 131.726 108.018 129.047 106.472V100.072Z" fill="black"/>
<path d="M151.841 90.8718C151.841 91.9653 151.073 92.9552 149.832 93.6718V100.072C151.073 99.3552 151.841 98.3653 151.841 97.2718V90.8718Z" fill="black"/>
<rect width="7.68" height="4.8" transform="matrix(0.866025 0.5 -0.866025 0.5 267.566 77.8577)" fill="#8BB6D4"/>
<rect width="7.68" height="11.52" transform="matrix(0.866025 0.5 0 1 263.409 80.2577)" fill="#4985AF"/>
<rect width="4.8" height="11.52" transform="matrix(0.866025 -0.5 0 1 270.06 84.0977)" fill="#36688B"/>
</svg>
