<?xml version="1.0" encoding="UTF-8"?>
<svg version="1.1" xmlns="http://www.w3.org/2000/svg" width="2560" height="544">
<path d="M0 0 C0.97608719 -0.00043808 1.95217438 -0.00087616 2.95783997 -0.00132751 C6.17742052 0.00075902 9.39647744 0.02408414 12.6159668 0.04760742 C14.85084244 0.05320385 17.08572177 0.05747372 19.32060242 0.06047058 C25.19790844 0.07191563 31.07499146 0.10138015 36.95220947 0.13458252 C42.95142602 0.16529056 48.95067866 0.17897751 54.94995117 0.1940918 C66.71762718 0.22624996 78.48513781 0.27744243 90.25268555 0.34057617 C92.1393472 5.27327515 93.88470555 10.18976315 95.41552734 15.24707031 C95.61202409 15.89359841 95.80852083 16.54012651 96.01097202 17.20624638 C96.66042556 19.34533307 97.3061615 21.4855229 97.9519043 23.62573242 C98.4195042 25.1684366 98.88734514 26.71106773 99.35540771 28.25363159 C100.35970272 31.56518576 101.36236706 34.87722753 102.36373901 38.18966675 C103.96160601 43.47520497 105.56303879 48.75965861 107.16503906 54.04394531 C109.12187915 60.49946567 111.07789866 66.95523349 113.03287411 73.41131878 C116.54267115 85.00159769 120.05954724 96.58971356 123.58081055 108.17651367 C123.96361962 109.43617541 123.96361962 109.43617541 124.35416222 110.72128487 C125.62854271 114.91461075 126.90303835 119.10790162 128.17758179 123.30117798 C130.67355512 131.51326007 133.16816166 139.72575741 135.6628418 147.93823242 C135.90214228 148.72598997 136.14144276 149.51374752 136.38799477 150.32537651 C154.78930375 210.90101317 154.78930375 210.90101317 162.11083984 235.0715332 C162.85672045 237.53356118 163.60296118 239.99548009 164.34960938 242.45727539 C166.71681833 250.2634826 169.077263 258.0716992 171.4335022 265.88122559 C172.80125675 270.41346595 174.1714622 274.94496443 175.54227638 279.47628021 C176.52500954 282.72521087 177.50654938 285.97449207 178.48535156 289.22460938 C179.58326678 292.86831989 180.68511922 296.51081815 181.7878418 300.15307617 C182.12276138 301.26799438 182.45768097 302.3829126 182.80274963 303.53161621 C183.1111528 304.54751831 183.41955597 305.56342041 183.73730469 306.61010742 C184.0069252 307.50318604 184.27654572 308.39626465 184.55433655 309.31640625 C185.07720881 311.31104169 185.07720881 311.31104169 186.25268555 312.34057617 C196.86343908 276.87716655 207.40381819 241.39231953 217.5534668 205.79370117 C217.82004089 204.85883377 218.08661499 203.92396637 218.36126709 202.96076965 C219.60592523 198.59264433 220.84742597 194.22365963 222.08325195 189.85302734 C224.80970407 180.23478683 227.65944564 170.66057242 230.58627319 161.10140991 C233.75714417 150.7293022 236.7906723 140.31861777 239.81518555 129.90307617 C240.4196897 127.82547695 241.02434845 125.74792271 241.62915039 123.67041016 C242.88040493 119.3718387 244.13100989 115.07307912 245.38110352 110.77416992 C248.08323662 101.48344932 250.79230409 92.19475162 253.5017395 82.90615845 C254.37453244 79.91388625 255.24709211 76.92154611 256.11962891 73.92919922 C258.96108032 64.18595665 261.8063379 54.44384289 264.65893555 44.70385742 C264.93260956 43.76935257 265.20628357 42.83484772 265.48825073 41.87202454 C266.77370707 37.48314234 268.05979817 33.0944476 269.34692383 28.70605469 C269.80770602 27.13370987 270.26848115 25.56136297 270.72924805 23.98901367 C270.92659546 23.31699417 271.12394287 22.64497467 271.32727051 21.95259094 C273.33708838 15.0914296 275.28840384 8.21556214 277.25268555 1.34057617 C322.46268555 1.34057617 367.67268555 1.34057617 414.25268555 1.34057617 C412.52765213 7.6656987 410.81148999 13.93661378 408.9050293 20.19995117 C408.69282242 20.89764114 408.48061554 21.59533112 408.26197815 22.31416321 C407.57362062 24.57365871 406.88228908 26.83222545 406.19018555 29.09057617 C405.94703613 29.885112 405.70388672 30.67964783 405.45336914 31.4982605 C401.29941379 45.06018922 397.00229618 58.57191629 392.61566162 72.06039429 C388.95101642 83.33500315 385.32224966 94.62123441 381.6882782 105.9057579 C381.06427139 107.8434148 380.4401632 109.78103902 379.81604004 111.71865845 C372.82519211 133.42345758 365.87407293 155.14075256 358.9533844 176.86802673 C356.83648565 183.51272373 354.71379484 190.15555225 352.58862305 196.79760742 C345.4460632 219.12805222 338.36657514 241.47739989 331.33935547 263.84442139 C326.85447828 278.11702253 322.33499204 292.37634526 317.71630859 306.60620117 C314.43090751 316.74232648 311.23708608 326.90595286 308.05328369 337.0743103 C304.43828709 348.61597802 300.75082984 360.13201663 297.0222168 371.63745117 C293.87715784 381.35470168 290.80446686 391.0936693 287.75268555 400.84057617 C283.91041361 413.11218508 280.00922979 425.36234008 276.03320312 437.59130859 C273.75606424 444.61350402 271.52960675 451.64823024 269.3581543 458.70385742 C268.86671581 460.29373146 268.37517983 461.88357536 267.88354492 463.47338867 C266.94443239 466.51097314 266.01641984 469.55164813 265.09448242 472.59448242 C258.94811901 492.6442567 258.94811901 492.6442567 254.50745773 495.4389019 C251.81267484 496.51653467 249.77543171 496.58672937 246.87432861 496.58108521 C245.78340408 496.58383453 244.69247955 496.58658386 243.5684967 496.5894165 C242.37663254 496.58222595 241.18476837 496.5750354 239.95678711 496.56762695 C238.06859505 496.56806503 238.06859505 496.56806503 236.14225769 496.56851196 C232.69420023 496.56908564 229.24628199 496.55732893 225.79825687 496.54336405 C222.19345366 496.53085921 218.58864724 496.52968638 214.98382568 496.52731323 C208.15927122 496.52109774 201.33478086 496.50468599 194.51025462 496.48461425 C186.74006479 496.46225741 178.9698719 496.45126237 171.19965792 496.44122338 C155.21729668 496.42031981 139.23499938 496.38514249 123.25268555 496.34057617 C123.0888119 495.81248132 122.92493826 495.28438646 122.75609875 494.74028873 C121.02390024 489.15879711 119.29039924 483.57771114 117.55619812 477.99684143 C116.91230041 475.9241267 116.26871625 473.85131454 115.62547302 471.77839661 C111.8424607 459.58807635 108.02244283 447.4130561 104.06518555 435.27807617 C100.25757967 423.57070702 96.62648992 411.81769024 93.05410767 400.03683472 C89.88842547 389.60349279 86.62967735 379.20740498 83.25268555 368.84057617 C79.37872455 356.94813082 75.68406391 345.00858612 72.05493164 333.03930664 C68.88896365 322.60514584 65.62994566 312.20822866 62.25268555 301.84057617 C58.38236406 289.95930353 54.68691068 278.03208666 51.06600952 266.07254028 C48.55546094 257.78424482 46.00979487 249.51104683 43.3347168 241.27416992 C43.0999765 240.55129791 42.86523621 239.8284259 42.62338257 239.08364868 C41.50649885 235.65164191 40.38202485 232.22229167 39.2487793 228.7956543 C38.85432617 227.59231445 38.45987305 226.38897461 38.0534668 225.14916992 C37.53006714 223.56833618 37.53006714 223.56833618 36.99609375 221.95556641 C36.25268555 219.34057617 36.25268555 219.34057617 36.25268555 216.34057617 C35.59268555 216.34057617 34.93268555 216.34057617 34.25268555 216.34057617 C33.86908623 218.22382851 33.86908623 218.22382851 33.47773743 220.14512634 C32.23593501 225.71593481 30.47534171 231.06416416 28.65185547 236.46777344 C28.11215622 238.08511887 28.11215622 238.08511887 27.56155396 239.73513794 C26.37293215 243.29383185 25.17799917 246.85037362 23.9831543 250.40698242 C23.14232367 252.92131635 22.30188516 255.43577786 21.46199036 257.95042419 C19.46939682 263.9137302 17.47249402 269.87558289 15.47377044 275.83683676 C11.51818499 287.63485046 7.57089229 299.43564112 3.62517571 311.2369585 C2.98312008 313.15708476 2.34085157 315.07713972 1.69855309 316.99718475 C-4.41275301 335.26855902 -10.4479339 353.5625909 -16.36546326 371.89763546 C-16.59395462 372.60559545 -16.82244598 373.31355543 -17.05786133 374.04296875 C-17.27975128 374.73056306 -17.50164124 375.41815737 -17.73025513 376.12658787 C-20.25077397 383.92206887 -22.84045113 391.69441831 -25.43481445 399.46557617 C-25.72792511 400.34401688 -26.02103577 401.22245758 -26.32302856 402.1275177 C-27.00113264 404.15723587 -27.68058596 406.18649578 -28.3605957 408.21557617 C-32.22545834 419.76099632 -36.0728005 431.31225458 -39.92178345 442.86297607 C-41.0909157 446.37135359 -42.26025164 449.87966313 -43.4296875 453.38793945 C-43.79911972 454.49652313 -44.16855194 455.60510681 -44.54917908 456.74728394 C-45.27290535 458.9177276 -45.99738716 461.08791951 -46.72267151 463.25784302 C-48.33795684 468.09317728 -49.94362654 472.93085375 -51.51391602 477.78100586 C-51.91920029 479.02392899 -51.91920029 479.02392899 -52.33267212 480.29196167 C-52.82345976 481.79935431 -53.30955907 483.30828641 -53.78964233 484.81912231 C-55.04098363 488.64772443 -56.4286436 492.03361938 -58.74731445 495.34057617 C-61.2953929 496.61461539 -63.06969272 496.46357966 -65.92312622 496.46083069 C-67.01971558 496.46220535 -68.11630493 496.46358002 -69.24612427 496.46499634 C-70.45452972 496.46140106 -71.66293518 496.45780579 -72.90795898 496.45410156 C-74.17621521 496.45424759 -75.44447144 496.45439362 -76.75115967 496.45454407 C-80.2344153 496.45483165 -83.71763669 496.44894117 -87.20088434 496.44197011 C-90.83907047 496.43573014 -94.47725734 496.43513226 -98.115448 496.4339447 C-105.00733622 496.43083329 -111.89920864 496.42262245 -118.79108989 496.41259521 C-126.63620852 496.40142819 -134.4813279 496.39592214 -142.32645249 496.39089978 C-158.46674908 496.38043969 -174.60702975 496.36284391 -190.74731445 496.34057617 C-197.01067214 475.72466123 -203.23172227 455.09676652 -209.38747025 434.44842911 C-210.01419898 432.34644724 -210.64120049 430.24454691 -211.26828003 428.14266968 C-223.34375421 387.66695883 -235.37766024 347.17884035 -247.39358711 306.68541527 C-248.04099906 304.50367136 -248.68845539 302.32194063 -249.33592224 300.14021301 C-252.75849538 288.60713203 -252.75849538 288.60713203 -254.20779419 283.71914673 C-259.49257718 265.89585749 -264.8137715 248.08381073 -270.16440964 230.28018188 C-271.14934025 227.00284227 -272.13399129 223.72541866 -273.11865234 220.44799805 C-273.31755412 219.78596091 -273.5164559 219.12392378 -273.721385 218.44182491 C-282.98488506 187.60806333 -292.23586736 156.77072107 -301.40183258 125.90779877 C-301.98351173 123.94954379 -302.56553322 121.99139086 -303.14764404 120.03326416 C-307.70222653 104.70711521 -312.21012606 89.36840506 -316.64117432 74.00611877 C-318.93421074 66.07264413 -321.30565559 58.16704099 -323.74731445 50.27807617 C-324.08478699 49.18590286 -324.42225952 48.09372955 -324.7699585 46.96846008 C-326.55585527 41.18961948 -326.55585527 41.18961948 -328.34545898 35.41192627 C-329.61683792 31.31138129 -330.8794531 27.20829968 -332.1315918 23.10183716 C-332.53770346 21.77527148 -332.94681868 20.44962108 -333.35913086 19.12496948 C-333.93383236 17.2773737 -334.49704024 15.42621484 -335.05981445 13.57495117 C-335.38594727 12.51501953 -335.71208008 11.45508789 -336.0480957 10.36303711 C-336.74731445 7.34057617 -336.74731445 7.34057617 -336.74731445 1.34057617 C-291.86731445 1.34057617 -246.98731445 1.34057617 -200.74731445 1.34057617 C-184.80011618 59.81363652 -184.80011618 59.81363652 -178.1340332 85.32104492 C-175.38671507 95.76999251 -172.50158108 106.17996562 -169.61685181 116.59164429 C-165.78120082 130.44701018 -162.10774853 144.34013472 -158.4927063 158.2545166 C-155.16616489 171.0478435 -151.70869785 183.79697801 -148.13430786 196.52310181 C-144.65977932 208.9065449 -141.35981449 221.33068504 -138.12231445 233.77807617 C-134.71500992 246.87830235 -131.24398715 259.95327606 -127.61206055 272.9934082 C-123.87814483 286.41259255 -120.31886629 299.87745067 -116.74731445 313.34057617 C-108.83010404 289.64966996 -100.97100826 265.94025433 -93.17176056 242.21025848 C-92.35428102 239.72321244 -91.53651943 237.23625928 -90.71868896 234.74932861 C-84.04614607 214.45798292 -77.38873307 194.161933 -70.79077148 173.84619141 C-66.38032661 160.26783006 -61.93822972 146.69994125 -57.49075317 133.13366699 C-48.4486411 105.55424795 -48.4486411 105.55424795 -39.43481445 77.96557617 C-39.15825012 77.11786652 -38.88168579 76.27015686 -38.59674072 75.39675903 C-35.3268088 65.36670317 -32.09864835 55.32423655 -28.9152832 45.26635742 C-28.59655746 44.26018372 -28.27783173 43.25401001 -27.94944763 42.21734619 C-26.41499076 37.37104376 -24.88507745 32.52338874 -23.36328125 27.6730957 C-18.88688176 13.44603045 -18.88688176 13.44603045 -16.66137695 7.28198242 C-16.40565918 6.56856689 -16.14994141 5.85515137 -15.88647461 5.12011719 C-12.1817001 -0.66730274 -6.09507782 -0.07168318 0 0 Z " fill="#000000" transform="translate(336.747314453125,43.659423828125)"/>
<path d="M0 0 C1.12775345 -0.00151062 1.12775345 -0.00151062 2.27828979 -0.00305176 C14.6402503 0.0081134 26.54401658 0.79728324 38.6875 3.25 C39.4000293 3.38390137 40.11255859 3.51780273 40.84667969 3.65576172 C59.34366775 7.18001464 77.25463669 14.11920056 93.6875 23.25 C94.32236328 23.60175293 94.95722656 23.95350586 95.61132812 24.31591797 C107.98523106 31.26141091 118.95938421 39.51438248 129.390625 49.14453125 C132.25056909 51.76614667 135.2107624 54.25931717 138.19140625 56.7421875 C139.6875 58.25 139.6875 58.25 140.6875 61.25 C141.3475 61.25 142.0075 61.25 142.6875 61.25 C145.94428371 64.69288563 148.78754962 68.50458614 151.6875 72.25 C152.12835937 72.81734863 152.56921875 73.38469727 153.0234375 73.96923828 C184.63178541 114.97558848 198.06580155 166.33919466 191.74414062 217.76904297 C186.96118156 251.22631052 174.11955231 282.3767705 153.6875 309.25 C153.01589844 310.1471875 152.34429688 311.044375 151.65234375 311.96875 C120.83560225 351.39517844 75.0986595 375.50567888 26.00854492 382.79638672 C21.16720842 383.37820344 16.34810352 383.4303348 11.4765625 383.453125 C10.50955414 383.45882507 9.54254578 383.46452515 8.54623413 383.47039795 C6.50397824 383.47980463 4.46170748 383.4863646 2.41943359 383.49023438 C-0.6438392 383.49986277 -3.70641765 383.53089606 -6.76953125 383.5625 C-23.16518473 383.65236241 -38.44936451 381.83481148 -54.1875 377.125 C-55.19361328 376.8264209 -56.19972656 376.5278418 -57.23632812 376.22021484 C-67.34930674 373.10571056 -76.877414 369.01842245 -86.3125 364.25 C-87.02341797 363.89180176 -87.73433594 363.53360352 -88.46679688 363.16455078 C-133.40364718 340.11595502 -167.0516333 297.82808955 -182.63134766 250.23852539 C-185.62387216 240.70071105 -187.79474562 231.12574241 -189.3125 221.25 C-189.42819336 220.50621094 -189.54388672 219.76242187 -189.66308594 218.99609375 C-195.83247922 177.47626001 -187.46481586 134.90095406 -167.3125 98.25 C-166.79284668 97.30350586 -166.79284668 97.30350586 -166.26269531 96.33789062 C-158.14923918 81.77375437 -147.79274104 69.27068035 -136.3125 57.25 C-135.43980469 56.32445312 -134.56710937 55.39890625 -133.66796875 54.4453125 C-122.28552182 42.67956209 -109.42758893 33.44974791 -95.3125 25.25 C-94.30944824 24.66605469 -94.30944824 24.66605469 -93.28613281 24.0703125 C-64.60149966 7.60806757 -32.91741729 0.03067667 0 0 Z " fill="#000000" transform="translate(1758.3125,160.75)"/>
<path d="M0 0 C1.2065625 0.24145752 1.2065625 0.24145752 2.4375 0.48779297 C34.86632954 7.16469399 62.90021752 22.82711897 88 44 C88.73734375 44.60199219 89.4746875 45.20398438 90.234375 45.82421875 C91.8627854 47.16928574 93.43875055 48.57752828 95 50 C95 50.66 95 51.32 95 52 C95.99 52.33 96.98 52.66 98 53 C99.47265625 54.42578125 99.47265625 54.42578125 101.0625 56.3125 C101.98289062 57.40304688 101.98289062 57.40304688 102.921875 58.515625 C103.95054687 59.74539062 103.95054687 59.74539062 105 61 C105.76828125 61.88171875 106.5365625 62.7634375 107.328125 63.671875 C113.49420104 70.84624021 118.84893483 78.36232054 123.93505859 86.33544922 C124.82346451 87.72406718 125.73161436 89.10002824 126.64453125 90.47265625 C142.31360595 114.94749193 151.99202483 147.05102163 152.23828125 176.03515625 C152.2480751 176.9831459 152.25786896 177.93113556 152.26795959 178.90785217 C152.58973522 218.08138143 152.58973522 218.08138143 148 235 C147.77505859 235.86077148 147.55011719 236.72154297 147.31835938 237.60839844 C138.62329732 270.29272951 122.50787926 298.02711407 99.34960938 322.56689453 C98.11448671 323.87843036 96.89248243 325.20228837 95.671875 326.52734375 C84.81893913 337.91554347 71.67325319 347.29437587 58 355 C57.32308105 355.38752441 56.64616211 355.77504883 55.94873047 356.17431641 C26.10132632 373.13261763 -5.90974007 380.64962762 -40.0625 380.5 C-41.6123056 380.49835342 -41.6123056 380.49835342 -43.19342041 380.49667358 C-59.0428136 380.44837751 -73.69032163 379.36401716 -89 375 C-90.51844816 374.61935099 -92.03794793 374.24286624 -93.55859375 373.87109375 C-140.54764489 361.84644107 -180.67283776 327.02870157 -205.16357422 286.05322266 C-230.67115268 242.14102895 -237.79714268 188.38297662 -225.3125 139.25 C-218.65435279 114.58221323 -207.37427757 92.33940409 -192 72 C-190.94619141 70.57880859 -190.94619141 70.57880859 -189.87109375 69.12890625 C-159.22308651 29.72432552 -113.34665947 4.94617992 -64.3125 -2.3125 C-43.33126783 -4.67927735 -20.64840616 -4.3031757 0 0 Z " fill="#000000" transform="translate(2408,164)"/>
<path d="M0 0 C1.08932327 -0.00151062 1.08932327 -0.00151062 2.20065308 -0.00305176 C20.34349411 0.01388531 37.81637664 2.09357619 55.25 7.25 C55.9394873 7.44932129 56.62897461 7.64864258 57.33935547 7.85400391 C81.55655327 14.97606412 106.28066602 27.36312783 125.25 44.25 C125.25 44.91 125.25 45.57 125.25 46.25 C125.82492187 46.50185059 126.39984375 46.75370117 126.9921875 47.01318359 C156.22365277 63.02600832 176.81924096 107.25823874 185.9375 137.75 C188.16862661 145.49861877 189.92783288 153.29220666 191.25 161.25 C191.45625 162.48105469 191.6625 163.71210938 191.875 164.98046875 C198.91610521 214.51268801 186.13862543 266.12412611 156.2890625 306.31640625 C124.43678794 348.03161984 79.15124457 375.95670467 26.81750488 382.97421265 C18.43676648 383.8744258 9.9802077 383.74106332 1.5625 383.6875 C0.04187958 383.68293793 0.04187958 383.68293793 -1.50946045 383.67828369 C-16.28668293 383.61268489 -30.40428423 383.09813136 -44.75 379.25 C-45.58418457 379.04101074 -46.41836914 378.83202148 -47.27783203 378.61669922 C-60.41665258 375.2839374 -72.59777322 370.20301022 -84.75 364.25 C-85.79244873 363.74315674 -85.79244873 363.74315674 -86.85595703 363.22607422 C-96.51082236 358.47556804 -105.19570472 352.76010997 -113.75 346.25 C-115.05710937 345.26386719 -115.05710937 345.26386719 -116.390625 344.2578125 C-156.30480557 313.22775599 -182.9529582 267.11065379 -189.50390625 216.88671875 C-194.14068512 176.19823145 -187.239169 136.35951727 -167.75 100.25 C-167.42386719 99.63785645 -167.09773437 99.02571289 -166.76171875 98.39501953 C-162.13999652 89.77532344 -156.87414912 81.88025094 -150.75 74.25 C-150.13366699 73.47922119 -150.13366699 73.47922119 -149.50488281 72.69287109 C-138.41764607 58.92487772 -126.08811542 46.61713571 -111.75 36.25 C-111.16669922 35.8276709 -110.58339844 35.4053418 -109.98242188 34.97021484 C-77.59107708 11.83227014 -39.69427915 0.03833725 0 0 Z " fill="#000000" transform="translate(902.75,160.75)"/>
<path d="M0 0 C2.80841343 -0.00964925 5.61607551 -0.04072897 8.42431641 -0.07226562 C23.92803581 -0.1638413 39.16914584 1.25547218 54.02978516 5.92773438 C54.85019287 6.18047119 55.67060059 6.43320801 56.51586914 6.69360352 C64.74960951 9.34571448 72.32799336 12.98605495 79.84228516 17.24023438 C80.83615234 17.79453125 81.83001953 18.34882813 82.85400391 18.91992188 C109.33299767 34.70910789 124.47909012 61.78569074 132.22851562 90.80517578 C135.45245349 103.59577095 137.00479167 116.41258626 136.96253967 129.59207153 C136.96382131 131.08109208 136.96382131 131.08109208 136.96512884 132.60019386 C136.96676536 135.89965979 136.9612924 139.19907397 136.95581055 142.49853516 C136.95552825 144.8743642 136.95568723 147.25019334 136.95625305 149.62602234 C136.95653938 156.05705093 136.95066916 162.48806078 136.94367909 168.91908503 C136.93757264 174.96469677 136.93705495 181.01031009 136.93602722 187.0559244 C136.9338428 199.02426562 136.9271993 210.99259999 136.91772461 222.9609375 C136.90853468 234.58170539 136.90147307 246.2024714 136.8972168 257.82324219 C136.8969488 258.54778044 136.8966808 259.2723187 136.89640468 260.01881266 C136.89409159 266.32202049 136.89193891 272.62522838 136.88980198 278.92843628 C136.88040546 306.03237542 136.86048115 333.1362964 136.84228516 360.24023438 C95.26228516 360.24023438 53.68228516 360.24023438 10.84228516 360.24023438 C10.79330078 347.06859375 10.74431641 333.89695312 10.69384766 320.32617188 C10.65843567 311.94986346 10.62253907 303.5735617 10.58447266 295.19726562 C10.52422621 281.92075153 10.4658806 268.64424981 10.42041016 255.36767578 C10.38727406 245.69518209 10.34732689 236.02274349 10.2994951 226.35031092 C10.27444288 221.23778926 10.25260125 216.12530312 10.23894119 211.01273727 C12.53305362 161.24260775 12.53305362 161.24260775 -4.92333984 116.79101562 C-6.15771484 115.24023438 -6.15771484 115.24023438 -7.15771484 112.24023438 C-8.92363371 111.23107404 -8.92363371 111.23107404 -11.15771484 110.24023438 C-11.96208984 109.62148438 -12.76646484 109.00273437 -13.59521484 108.36523438 C-27.07718557 99.15887585 -45.87564103 100.06708567 -61.17480469 102.89819336 C-66.61834783 104.00124351 -71.33959021 105.50141448 -76.15771484 108.24023438 C-77.02138672 108.71847656 -77.88505859 109.19671875 -78.77490234 109.68945312 C-83.87426022 112.62206916 -83.87426022 112.62206916 -88.32568359 116.42773438 C-90.15771484 118.24023438 -90.15771484 118.24023438 -92.15771484 118.24023438 C-92.41939453 118.80097656 -92.68107422 119.36171875 -92.95068359 119.93945312 C-94.27689113 122.46740212 -95.84470697 124.70638044 -97.47021484 127.05273438 C-108.26729645 143.99065615 -108.45608653 163.5191187 -108.46069336 182.91943359 C-108.46837218 184.85103708 -108.47692184 186.78263726 -108.48626709 188.7142334 C-108.50440935 192.84083279 -108.51653381 196.96738812 -108.52380562 201.09402084 C-108.53536559 207.61490459 -108.56084742 214.13569039 -108.58811951 220.65652466 C-108.62960188 230.95732262 -108.66210338 241.25812538 -108.69059366 251.55896676 C-108.7417974 270.04792864 -108.80363107 288.53685036 -108.87593406 307.0257417 C-108.90088682 313.51423269 -108.92030223 320.00271034 -108.93531621 326.49123168 C-108.94548231 330.50978163 -108.9596258 334.5283106 -108.97479248 338.54684448 C-108.98097294 340.41699864 -108.98541818 342.28715941 -108.98805046 344.15732193 C-108.99183316 346.6982535 -109.00162047 349.23909141 -109.01295471 351.77999878 C-109.01256858 352.52948001 -109.01218245 353.27896124 -109.01178461 354.05115402 C-109.04364814 359.12616767 -109.04364814 359.12616767 -110.15771484 360.24023438 C-111.76228676 360.33840645 -113.37118758 360.36655358 -114.97875977 360.36721802 C-116.02204437 360.37003784 -117.06532898 360.37285767 -118.14022827 360.37576294 C-119.29455353 360.37373871 -120.44887878 360.37171448 -121.63818359 360.36962891 C-122.84616608 360.37138123 -124.05414856 360.37313354 -125.29873657 360.37493896 C-128.62097438 360.37859715 -131.94315028 360.37772406 -135.26538467 360.37455988 C-138.73494808 360.37203589 -142.20450876 360.37437392 -145.67407227 360.37594604 C-151.50163246 360.37776763 -157.32918 360.37536173 -163.15673828 360.37060547 C-169.90332777 360.36516287 -176.64988704 360.36692553 -183.39647579 360.37243187 C-189.17905658 360.37696333 -194.96162825 360.3776134 -200.74421024 360.37499321 C-204.20223041 360.37343061 -207.66023635 360.37323619 -211.11825562 360.37652969 C-214.97126448 360.37994277 -218.82423924 360.37521814 -222.67724609 360.36962891 C-224.40873398 360.37266525 -224.40873398 360.37266525 -226.17520142 360.37576294 C-227.74012833 360.3715332 -227.74012833 360.3715332 -229.33666992 360.36721802 C-230.24886795 360.36684099 -231.16106598 360.36646397 -232.10090637 360.36607552 C-234.15771484 360.24023438 -234.15771484 360.24023438 -235.15771484 359.24023438 C-235.25531976 357.36887502 -235.28142836 355.493775 -235.28076267 353.61987209 C-235.28275372 352.3917258 -235.28474477 351.16357951 -235.28679615 349.89821666 C-235.28394256 348.51771046 -235.28099695 347.13720444 -235.27796936 345.75669861 C-235.27840493 344.30390563 -235.27927959 342.85111273 -235.28055853 341.39832026 C-235.28280621 337.38721569 -235.27877849 333.37613756 -235.27378047 329.36503637 C-235.26948004 325.04667685 -235.2709221 320.72831894 -235.27168274 316.40995789 C-235.27220824 308.92181479 -235.26905877 301.43368038 -235.2634449 293.94553947 C-235.25533335 283.11881534 -235.25271504 272.29209542 -235.25145691 261.46536858 C-235.24926585 243.90163331 -235.24260429 226.33790267 -235.2331543 208.77416992 C-235.22398158 191.70808943 -235.21690006 174.64201019 -235.21264648 157.57592773 C-235.21238376 156.52476801 -235.21212104 155.47360829 -235.21185035 154.39059525 C-235.21054536 149.11747281 -235.20928164 143.84435036 -235.20803845 138.57122791 C-235.19766414 94.79422595 -235.17922493 51.01723256 -235.15771484 7.24023438 C-193.57771484 7.24023438 -151.99771484 7.24023438 -109.15771484 7.24023438 C-108.66271484 27.53523438 -108.66271484 27.53523438 -108.15771484 48.24023438 C-104.69271484 44.28023437 -104.69271484 44.28023437 -101.15771484 40.24023438 C-73.8746656 10.64891051 -39.58168037 0.0818508 0 0 Z " fill="#000000" transform="translate(1380.15771484375,179.759765625)"/>
<path d="M0 0 C41.58 0 83.16 0 126 0 C126 178.2 126 356.4 126 540 C84.42 540 42.84 540 0 540 C0 361.8 0 183.6 0 0 Z " fill="#000000" transform="translate(2001,0)"/>
</svg>
